<svg width="237" height="236" viewBox="0 0 237 236" fill="none" xmlns="http://www.w3.org/2000/svg">
<g filter="url(#filter0_dd_11574_15960)">
<rect x="20.5" width="196" height="196" rx="24" fill="white"/>
<rect width="40" height="40" rx="20" transform="matrix(-1 0 0 1 76.5 29)" fill="#FAEDD5"/>
<path d="M52.5 53L60.5 45M54.5 46C54.5 46.5523 54.0523 47 53.5 47C52.9477 47 52.5 46.5523 52.5 46C52.5 45.4477 52.9477 45 53.5 45C54.0523 45 54.5 45.4477 54.5 46ZM60.5 51.8284C60.5 52.3807 60.0523 52.8284 59.5 52.8284C58.9477 52.8284 58.5 52.3807 58.5 51.8284C58.5 51.2761 58.9477 50.8284 59.5 50.8284C60.0523 50.8284 60.5 51.2761 60.5 51.8284Z" stroke="#D09343" stroke-width="1.5" stroke-linecap="round"/>
<path d="M56.5 59C62.0228 59 66.5 54.5228 66.5 49C66.5 43.4772 62.0228 39 56.5 39C50.9772 39 46.5 43.4772 46.5 49C46.5 54.5228 50.9772 59 56.5 59Z" stroke="#D09343" stroke-width="1.5"/>
<path d="M138.018 29.114C138.018 28.162 138.237 27.308 138.676 26.552C139.124 25.796 139.726 25.208 140.482 24.788C141.247 24.3587 142.083 24.144 142.988 24.144C144.024 24.144 144.943 24.4007 145.746 24.914C146.558 25.418 147.146 26.1367 147.51 27.07H145.592C145.34 26.5567 144.99 26.174 144.542 25.922C144.094 25.67 143.576 25.544 142.988 25.544C142.344 25.544 141.77 25.6887 141.266 25.978C140.762 26.2673 140.365 26.6827 140.076 27.224C139.796 27.7653 139.656 28.3953 139.656 29.114C139.656 29.8327 139.796 30.4627 140.076 31.004C140.365 31.5453 140.762 31.9653 141.266 32.264C141.77 32.5533 142.344 32.698 142.988 32.698C143.576 32.698 144.094 32.572 144.542 32.32C144.99 32.068 145.34 31.6853 145.592 31.172H147.51C147.146 32.1053 146.558 32.824 145.746 33.328C144.943 33.832 144.024 34.084 142.988 34.084C142.073 34.084 141.238 33.874 140.482 33.454C139.726 33.0247 139.124 32.432 138.676 31.676C138.237 30.92 138.018 30.066 138.018 29.114ZM155.384 24.27V25.572H152.794V34H151.198V25.572H148.594V24.27H155.384ZM161.774 34L159.534 30.108H158.316V34H156.72V24.27H160.08C160.827 24.27 161.457 24.4007 161.97 24.662C162.493 24.9233 162.88 25.2733 163.132 25.712C163.394 26.1507 163.524 26.6407 163.524 27.182C163.524 27.8167 163.338 28.3953 162.964 28.918C162.6 29.4313 162.036 29.7813 161.27 29.968L163.678 34H161.774ZM158.316 28.834H160.08C160.678 28.834 161.126 28.6847 161.424 28.386C161.732 28.0873 161.886 27.686 161.886 27.182C161.886 26.678 161.737 26.286 161.438 26.006C161.14 25.7167 160.687 25.572 160.08 25.572H158.316V28.834Z" fill="#717680"/>
<path d="M150.532 53.408H142.756V57.512C143.092 57.096 143.572 56.76 144.196 56.504C144.82 56.232 145.484 56.096 146.188 56.096C147.468 56.096 148.516 56.376 149.332 56.936C150.148 57.496 150.74 58.216 151.108 59.096C151.476 59.96 151.66 60.888 151.66 61.88C151.66 63.72 151.132 65.2 150.076 66.32C149.036 67.44 147.548 68 145.612 68C143.788 68 142.332 67.544 141.244 66.632C140.156 65.72 139.54 64.528 139.396 63.056H142.66C142.804 63.696 143.124 64.208 143.62 64.592C144.132 64.976 144.78 65.168 145.564 65.168C146.508 65.168 147.22 64.872 147.7 64.28C148.18 63.688 148.42 62.904 148.42 61.928C148.42 60.936 148.172 60.184 147.676 59.672C147.196 59.144 146.484 58.88 145.54 58.88C144.868 58.88 144.308 59.048 143.86 59.384C143.412 59.72 143.092 60.168 142.9 60.728H139.684V50.456H150.532V53.408ZM155.609 68.168C155.001 68.168 154.497 67.984 154.097 67.616C153.713 67.232 153.521 66.76 153.521 66.2C153.521 65.64 153.713 65.176 154.097 64.808C154.497 64.424 155.001 64.232 155.609 64.232C156.201 64.232 156.689 64.424 157.073 64.808C157.457 65.176 157.649 65.64 157.649 66.2C157.649 66.76 157.457 67.232 157.073 67.616C156.689 67.984 156.201 68.168 155.609 68.168ZM159.084 53.6V50.504H164.868V68H161.412V53.6H159.084ZM168.763 64.208C170.299 62.928 171.523 61.864 172.435 61.016C173.347 60.152 174.107 59.256 174.715 58.328C175.323 57.4 175.627 56.488 175.627 55.592C175.627 54.776 175.435 54.136 175.051 53.672C174.667 53.208 174.075 52.976 173.275 52.976C172.475 52.976 171.859 53.248 171.427 53.792C170.995 54.32 170.771 55.048 170.755 55.976H167.491C167.555 54.056 168.123 52.6 169.195 51.608C170.283 50.616 171.659 50.12 173.323 50.12C175.147 50.12 176.547 50.608 177.523 51.584C178.499 52.544 178.987 53.816 178.987 55.4C178.987 56.648 178.651 57.84 177.979 58.976C177.307 60.112 176.539 61.104 175.675 61.952C174.811 62.784 173.683 63.792 172.291 64.976H179.371V67.76H167.515V65.264L168.763 64.208ZM180.624 54.8C180.624 53.584 180.976 52.632 181.68 51.944C182.4 51.256 183.32 50.912 184.44 50.912C185.56 50.912 186.472 51.256 187.176 51.944C187.896 52.632 188.256 53.584 188.256 54.8C188.256 56.032 187.896 56.992 187.176 57.68C186.472 58.368 185.56 58.712 184.44 58.712C183.32 58.712 182.4 58.368 181.68 57.68C180.976 56.992 180.624 56.032 180.624 54.8ZM196.032 51.2L186.6 68H183.336L192.744 51.2H196.032ZM184.416 52.928C183.536 52.928 183.096 53.552 183.096 54.8C183.096 56.064 183.536 56.696 184.416 56.696C184.848 56.696 185.184 56.544 185.424 56.24C185.664 55.92 185.784 55.44 185.784 54.8C185.784 53.552 185.328 52.928 184.416 52.928ZM191.16 64.376C191.16 63.144 191.512 62.192 192.216 61.52C192.936 60.832 193.856 60.488 194.976 60.488C196.096 60.488 197 60.832 197.688 61.52C198.392 62.192 198.744 63.144 198.744 64.376C198.744 65.608 198.392 66.568 197.688 67.256C197 67.944 196.096 68.288 194.976 68.288C193.84 68.288 192.92 67.944 192.216 67.256C191.512 66.568 191.16 65.608 191.16 64.376ZM194.952 62.504C194.04 62.504 193.584 63.128 193.584 64.376C193.584 65.64 194.04 66.272 194.952 66.272C195.848 66.272 196.296 65.64 196.296 64.376C196.296 63.128 195.848 62.504 194.952 62.504Z" fill="#D09342"/>
<line x1="36.5" y1="97.5" x2="200.5" y2="97.5" stroke="white" stroke-opacity="0.13"/>
<rect width="40" height="40" rx="20" transform="matrix(-1 0 0 1 76.5 127)" fill="#E6F3F9"/>
<path d="M59 149.001C59 150.382 57.8807 151.501 56.5 151.501C55.1192 151.501 54 150.382 54 149.001C54 147.62 55.1192 146.501 56.5 146.501C57.8807 146.501 59 147.62 59 149.001Z" stroke="#4FA2CA" stroke-width="1.5" stroke-linecap="round" stroke-linejoin="round"/>
<path d="M52.5 142.89C51.3807 142.884 50.0598 142.758 48.378 142.425C47.4208 142.235 46.5 142.946 46.5 143.922V153.939C46.5 154.627 46.9726 155.232 47.6448 155.38C54.6096 156.916 55.7491 155.11 60.5 155.11C62.0107 155.11 63.2361 155.253 64.1762 155.431C65.2719 155.638 66.5 154.798 66.5 153.683V143.909C66.5 143.34 66.1756 142.826 65.6329 142.658C64.8228 142.407 63.4452 142.088 61.5 142.003" stroke="#4FA2CA" stroke-width="1.5" stroke-linecap="round" stroke-linejoin="round"/>
<path d="M46.5 146.001C48.4513 146.001 50.2048 144.406 50.429 142.755M63.0005 142.501C63.0005 144.541 64.7655 146.47 66.5 146.47M66.5 152.001C64.6009 152.001 62.7601 153.311 62.602 155.099M50.5005 155.497C50.5005 153.288 48.7096 151.497 46.5005 151.497" stroke="#4FA2CA" stroke-width="1.5" stroke-linecap="round" stroke-linejoin="round"/>
<path d="M54 140.501C54 140.501 55.7998 138.001 56.5 138.001M56.5 138.001C57.2002 138.001 59 140.501 59 140.501M56.5 138.001V143.501" stroke="#4FA2CA" stroke-width="1.5" stroke-linecap="round" stroke-linejoin="round"/>
<path d="M123.836 122.27V123.572H121.246V132H119.65V123.572H117.046V122.27H123.836ZM128.518 132.126C127.79 132.126 127.132 131.963 126.544 131.636C125.956 131.3 125.494 130.833 125.158 130.236C124.822 129.629 124.654 128.929 124.654 128.136C124.654 127.352 124.827 126.657 125.172 126.05C125.518 125.443 125.989 124.977 126.586 124.65C127.184 124.323 127.851 124.16 128.588 124.16C129.326 124.16 129.993 124.323 130.59 124.65C131.188 124.977 131.659 125.443 132.004 126.05C132.35 126.657 132.522 127.352 132.522 128.136C132.522 128.92 132.345 129.615 131.99 130.222C131.636 130.829 131.15 131.3 130.534 131.636C129.928 131.963 129.256 132.126 128.518 132.126ZM128.518 130.74C128.929 130.74 129.312 130.642 129.666 130.446C130.03 130.25 130.324 129.956 130.548 129.564C130.772 129.172 130.884 128.696 130.884 128.136C130.884 127.576 130.777 127.105 130.562 126.722C130.348 126.33 130.063 126.036 129.708 125.84C129.354 125.644 128.971 125.546 128.56 125.546C128.15 125.546 127.767 125.644 127.412 125.84C127.067 126.036 126.792 126.33 126.586 126.722C126.381 127.105 126.278 127.576 126.278 128.136C126.278 128.967 126.488 129.611 126.908 130.068C127.338 130.516 127.874 130.74 128.518 130.74ZM135.682 125.588V129.858C135.682 130.147 135.747 130.357 135.878 130.488C136.018 130.609 136.251 130.67 136.578 130.67H137.558V132H136.298C135.579 132 135.029 131.832 134.646 131.496C134.263 131.16 134.072 130.614 134.072 129.858V125.588H133.162V124.286H134.072V122.368H135.682V124.286H137.558V125.588H135.682ZM138.217 128.108C138.217 127.333 138.376 126.647 138.693 126.05C139.02 125.453 139.458 124.991 140.009 124.664C140.569 124.328 141.185 124.16 141.857 124.16C142.464 124.16 142.991 124.281 143.439 124.524C143.896 124.757 144.26 125.051 144.531 125.406V124.286H146.141V132H144.531V130.852C144.26 131.216 143.892 131.519 143.425 131.762C142.958 132.005 142.426 132.126 141.829 132.126C141.166 132.126 140.56 131.958 140.009 131.622C139.458 131.277 139.02 130.801 138.693 130.194C138.376 129.578 138.217 128.883 138.217 128.108ZM144.531 128.136C144.531 127.604 144.419 127.142 144.195 126.75C143.98 126.358 143.696 126.059 143.341 125.854C142.986 125.649 142.604 125.546 142.193 125.546C141.782 125.546 141.4 125.649 141.045 125.854C140.69 126.05 140.401 126.344 140.177 126.736C139.962 127.119 139.855 127.576 139.855 128.108C139.855 128.64 139.962 129.107 140.177 129.508C140.401 129.909 140.69 130.217 141.045 130.432C141.409 130.637 141.792 130.74 142.193 130.74C142.604 130.74 142.986 130.637 143.341 130.432C143.696 130.227 143.98 129.928 144.195 129.536C144.419 129.135 144.531 128.668 144.531 128.136ZM149.553 121.64V132H147.957V121.64H149.553ZM157.931 132.098C157.278 132.098 156.69 131.986 156.167 131.762C155.645 131.529 155.234 131.202 154.935 130.782C154.637 130.362 154.487 129.872 154.487 129.312H156.195C156.233 129.732 156.396 130.077 156.685 130.348C156.984 130.619 157.399 130.754 157.931 130.754C158.482 130.754 158.911 130.623 159.219 130.362C159.527 130.091 159.681 129.746 159.681 129.326C159.681 128.999 159.583 128.733 159.387 128.528C159.201 128.323 158.963 128.164 158.673 128.052C158.393 127.94 158.001 127.819 157.497 127.688C156.863 127.52 156.345 127.352 155.943 127.184C155.551 127.007 155.215 126.736 154.935 126.372C154.655 126.008 154.515 125.523 154.515 124.916C154.515 124.356 154.655 123.866 154.935 123.446C155.215 123.026 155.607 122.704 156.111 122.48C156.615 122.256 157.199 122.144 157.861 122.144C158.804 122.144 159.574 122.382 160.171 122.858C160.778 123.325 161.114 123.969 161.179 124.79H159.415C159.387 124.435 159.219 124.132 158.911 123.88C158.603 123.628 158.197 123.502 157.693 123.502C157.236 123.502 156.863 123.619 156.573 123.852C156.284 124.085 156.139 124.421 156.139 124.86C156.139 125.159 156.228 125.406 156.405 125.602C156.592 125.789 156.825 125.938 157.105 126.05C157.385 126.162 157.768 126.283 158.253 126.414C158.897 126.591 159.42 126.769 159.821 126.946C160.232 127.123 160.577 127.399 160.857 127.772C161.147 128.136 161.291 128.626 161.291 129.242C161.291 129.737 161.156 130.203 160.885 130.642C160.624 131.081 160.237 131.435 159.723 131.706C159.219 131.967 158.622 132.098 157.931 132.098ZM164.491 125.42C164.761 125.065 165.13 124.767 165.597 124.524C166.063 124.281 166.591 124.16 167.179 124.16C167.851 124.16 168.462 124.328 169.013 124.664C169.573 124.991 170.011 125.453 170.329 126.05C170.646 126.647 170.805 127.333 170.805 128.108C170.805 128.883 170.646 129.578 170.329 130.194C170.011 130.801 169.573 131.277 169.013 131.622C168.462 131.958 167.851 132.126 167.179 132.126C166.591 132.126 166.068 132.009 165.611 131.776C165.153 131.533 164.78 131.235 164.491 130.88V135.668H162.895V124.286H164.491V125.42ZM169.181 128.108C169.181 127.576 169.069 127.119 168.845 126.736C168.63 126.344 168.341 126.05 167.977 125.854C167.622 125.649 167.239 125.546 166.829 125.546C166.427 125.546 166.045 125.649 165.681 125.854C165.326 126.059 165.037 126.358 164.813 126.75C164.598 127.142 164.491 127.604 164.491 128.136C164.491 128.668 164.598 129.135 164.813 129.536C165.037 129.928 165.326 130.227 165.681 130.432C166.045 130.637 166.427 130.74 166.829 130.74C167.239 130.74 167.622 130.637 167.977 130.432C168.341 130.217 168.63 129.909 168.845 129.508C169.069 129.107 169.181 128.64 169.181 128.108ZM179.173 127.954C179.173 128.243 179.154 128.505 179.117 128.738H173.223C173.27 129.354 173.498 129.849 173.909 130.222C174.32 130.595 174.824 130.782 175.421 130.782C176.28 130.782 176.886 130.423 177.241 129.704H178.963C178.73 130.413 178.305 130.997 177.689 131.454C177.082 131.902 176.326 132.126 175.421 132.126C174.684 132.126 174.021 131.963 173.433 131.636C172.854 131.3 172.397 130.833 172.061 130.236C171.734 129.629 171.571 128.929 171.571 128.136C171.571 127.343 171.73 126.647 172.047 126.05C172.374 125.443 172.826 124.977 173.405 124.65C173.993 124.323 174.665 124.16 175.421 124.16C176.149 124.16 176.798 124.319 177.367 124.636C177.936 124.953 178.38 125.401 178.697 125.98C179.014 126.549 179.173 127.207 179.173 127.954ZM177.507 127.45C177.498 126.862 177.288 126.391 176.877 126.036C176.466 125.681 175.958 125.504 175.351 125.504C174.8 125.504 174.329 125.681 173.937 126.036C173.545 126.381 173.312 126.853 173.237 127.45H177.507ZM184.356 124.16C184.962 124.16 185.504 124.286 185.98 124.538C186.465 124.79 186.843 125.163 187.114 125.658C187.384 126.153 187.52 126.75 187.52 127.45V132H185.938V127.688C185.938 126.997 185.765 126.47 185.42 126.106C185.074 125.733 184.603 125.546 184.006 125.546C183.408 125.546 182.932 125.733 182.578 126.106C182.232 126.47 182.06 126.997 182.06 127.688V132H180.464V124.286H182.06V125.168C182.321 124.851 182.652 124.603 183.054 124.426C183.464 124.249 183.898 124.16 184.356 124.16ZM191.137 125.588V129.858C191.137 130.147 191.203 130.357 191.333 130.488C191.473 130.609 191.707 130.67 192.033 130.67H193.013V132H191.753C191.035 132 190.484 131.832 190.101 131.496C189.719 131.16 189.527 130.614 189.527 129.858V125.588H188.617V124.286H189.527V122.368H191.137V124.286H193.013V125.588H191.137Z" fill="#717680"/>
<path d="M117.402 148.504H128.676V148.527C128.012 149.551 127.637 150.098 127.551 150.168H124.539C124.953 150.652 125.234 151.242 125.383 151.938H128.594C128.633 151.945 128.652 151.961 128.652 151.984C127.934 153.062 127.566 153.602 127.551 153.602H125.465C125.418 154.156 125.152 154.824 124.668 155.605C124.027 156.395 123.414 156.906 122.828 157.141C121.734 157.664 120.688 157.926 119.688 157.926V157.949C119.688 158.027 119.934 158.352 120.426 158.922L125.992 165.637V165.953C125.992 165.984 125.973 166 125.934 166H123.484C119.078 160.867 116.875 158.289 116.875 158.266V156.707L116.898 156.648C117.289 156.703 117.746 156.73 118.27 156.73C120.738 156.73 122.273 155.93 122.875 154.328C122.969 154.094 123.016 153.852 123.016 153.602H116.312C116.281 153.602 116.266 153.586 116.266 153.555C117.008 152.477 117.387 151.938 117.402 151.938H122.723V151.914C122.418 151.297 121.828 150.816 120.953 150.473C120.328 150.27 119.766 150.168 119.266 150.168H116.289V150.109C117.008 149.039 117.379 148.504 117.402 148.504ZM128.884 151.6V148.504H134.668V166H131.212V151.6H128.884ZM137.555 153.112C137.635 151.512 138.195 150.28 139.235 149.416C140.291 148.536 141.675 148.096 143.387 148.096C144.555 148.096 145.555 148.304 146.387 148.72C147.219 149.12 147.843 149.672 148.259 150.376C148.691 151.064 148.907 151.848 148.907 152.728C148.907 153.736 148.643 154.592 148.115 155.296C147.603 155.984 146.987 156.448 146.267 156.688V156.784C147.195 157.072 147.915 157.584 148.427 158.32C148.955 159.056 149.219 160 149.219 161.152C149.219 162.112 148.995 162.968 148.547 163.72C148.115 164.472 147.467 165.064 146.603 165.496C145.755 165.912 144.731 166.12 143.531 166.12C141.723 166.12 140.251 165.664 139.115 164.752C137.979 163.84 137.379 162.496 137.315 160.72H140.579C140.611 161.504 140.875 162.136 141.371 162.616C141.883 163.08 142.579 163.312 143.459 163.312C144.275 163.312 144.899 163.088 145.331 162.64C145.779 162.176 146.003 161.584 146.003 160.864C146.003 159.904 145.699 159.216 145.091 158.8C144.483 158.384 143.539 158.176 142.259 158.176H141.563V155.416H142.259C144.531 155.416 145.667 154.656 145.667 153.136C145.667 152.448 145.459 151.912 145.043 151.528C144.643 151.144 144.059 150.952 143.291 150.952C142.539 150.952 141.955 151.16 141.539 151.576C141.139 151.976 140.907 152.488 140.843 153.112H137.555ZM151.443 153.112C151.523 151.512 152.083 150.28 153.123 149.416C154.179 148.536 155.563 148.096 157.275 148.096C158.443 148.096 159.443 148.304 160.275 148.72C161.107 149.12 161.731 149.672 162.147 150.376C162.579 151.064 162.795 151.848 162.795 152.728C162.795 153.736 162.531 154.592 162.003 155.296C161.491 155.984 160.875 156.448 160.155 156.688V156.784C161.083 157.072 161.803 157.584 162.315 158.32C162.843 159.056 163.107 160 163.107 161.152C163.107 162.112 162.883 162.968 162.435 163.72C162.003 164.472 161.355 165.064 160.491 165.496C159.643 165.912 158.619 166.12 157.419 166.12C155.611 166.12 154.139 165.664 153.003 164.752C151.867 163.84 151.267 162.496 151.203 160.72H154.467C154.499 161.504 154.763 162.136 155.259 162.616C155.771 163.08 156.467 163.312 157.347 163.312C158.163 163.312 158.787 163.088 159.219 162.64C159.667 162.176 159.891 161.584 159.891 160.864C159.891 159.904 159.587 159.216 158.979 158.8C158.371 158.384 157.427 158.176 156.147 158.176H155.451V155.416H156.147C158.419 155.416 159.555 154.656 159.555 153.136C159.555 152.448 159.347 151.912 158.931 151.528C158.531 151.144 157.947 150.952 157.179 150.952C156.427 150.952 155.843 151.16 155.427 151.576C155.027 151.976 154.795 152.488 154.731 153.112H151.443ZM167.154 166.168C166.546 166.168 166.042 165.984 165.642 165.616C165.258 165.232 165.066 164.76 165.066 164.2C165.066 163.64 165.258 163.176 165.642 162.808C166.042 162.424 166.546 162.232 167.154 162.232C167.746 162.232 168.234 162.424 168.618 162.808C169.002 163.176 169.194 163.64 169.194 164.2C169.194 164.76 169.002 165.232 168.618 165.616C168.234 165.984 167.746 166.168 167.154 166.168ZM174.924 161.08C175.052 161.784 175.34 162.328 175.788 162.712C176.252 163.08 176.868 163.264 177.636 163.264C178.628 163.264 179.348 162.856 179.796 162.04C180.244 161.208 180.468 159.816 180.468 157.864C180.1 158.376 179.58 158.776 178.908 159.064C178.252 159.352 177.54 159.496 176.772 159.496C175.748 159.496 174.82 159.288 173.988 158.872C173.172 158.44 172.524 157.808 172.044 156.976C171.564 156.128 171.324 155.104 171.324 153.904C171.324 152.128 171.852 150.72 172.908 149.68C173.964 148.624 175.404 148.096 177.228 148.096C179.5 148.096 181.1 148.824 182.028 150.28C182.972 151.736 183.444 153.928 183.444 156.856C183.444 158.936 183.26 160.64 182.892 161.968C182.54 163.296 181.924 164.304 181.044 164.992C180.18 165.68 178.996 166.024 177.492 166.024C176.308 166.024 175.3 165.8 174.468 165.352C173.636 164.888 172.996 164.288 172.548 163.552C172.116 162.8 171.868 161.976 171.804 161.08H174.924ZM177.468 156.76C178.3 156.76 178.956 156.504 179.436 155.992C179.916 155.48 180.156 154.792 180.156 153.928C180.156 152.984 179.9 152.256 179.388 151.744C178.892 151.216 178.212 150.952 177.348 150.952C176.484 150.952 175.796 151.224 175.284 151.768C174.788 152.296 174.54 153 174.54 153.88C174.54 154.728 174.78 155.424 175.26 155.968C175.756 156.496 176.492 156.76 177.468 156.76ZM195.42 166L189.324 158.536V166H185.964V149.248H189.324V156.76L195.42 149.248H199.476L192.564 157.552L199.668 166H195.42Z" fill="#4EA2CA"/>
</g>
<defs>
<filter id="filter0_dd_11574_15960" x="0.5" y="0" width="236" height="236" filterUnits="userSpaceOnUse" color-interpolation-filters="sRGB">
<feFlood flood-opacity="0" result="BackgroundImageFix"/>
<feColorMatrix in="SourceAlpha" type="matrix" values="0 0 0 0 0 0 0 0 0 0 0 0 0 0 0 0 0 0 127 0" result="hardAlpha"/>
<feMorphology radius="4" operator="erode" in="SourceAlpha" result="effect1_dropShadow_11574_15960"/>
<feOffset dy="8"/>
<feGaussianBlur stdDeviation="4"/>
<feColorMatrix type="matrix" values="0 0 0 0 0.0392157 0 0 0 0 0.0496732 0 0 0 0 0.0705882 0 0 0 0.03 0"/>
<feBlend mode="normal" in2="BackgroundImageFix" result="effect1_dropShadow_11574_15960"/>
<feColorMatrix in="SourceAlpha" type="matrix" values="0 0 0 0 0 0 0 0 0 0 0 0 0 0 0 0 0 0 127 0" result="hardAlpha"/>
<feMorphology radius="4" operator="erode" in="SourceAlpha" result="effect2_dropShadow_11574_15960"/>
<feOffset dy="20"/>
<feGaussianBlur stdDeviation="12"/>
<feColorMatrix type="matrix" values="0 0 0 0 0.0392157 0 0 0 0 0.0496732 0 0 0 0 0.0705882 0 0 0 0.08 0"/>
<feBlend mode="normal" in2="effect1_dropShadow_11574_15960" result="effect2_dropShadow_11574_15960"/>
<feBlend mode="normal" in="SourceGraphic" in2="effect2_dropShadow_11574_15960" result="shape"/>
</filter>
</defs>
</svg>
