<svg width="237" height="236" viewBox="0 0 237 236" fill="none" xmlns="http://www.w3.org/2000/svg">
<g filter="url(#filter0_dd_11574_15980)">
<rect x="20.5" width="196" height="196" rx="24" fill="white"/>
<path d="M39.146 24.27V34H37.55V24.27H39.146ZM50.2994 26.16C50.9061 26.16 51.4474 26.286 51.9234 26.538C52.4087 26.79 52.7867 27.1633 53.0574 27.658C53.3374 28.1527 53.4774 28.75 53.4774 29.45V34H51.8954V29.688C51.8954 28.9973 51.7227 28.47 51.3774 28.106C51.0321 27.7327 50.5607 27.546 49.9634 27.546C49.3661 27.546 48.8901 27.7327 48.5354 28.106C48.1901 28.47 48.0174 28.9973 48.0174 29.688V34H46.4354V29.688C46.4354 28.9973 46.2627 28.47 45.9174 28.106C45.5721 27.7327 45.1007 27.546 44.5034 27.546C43.9061 27.546 43.4301 27.7327 43.0754 28.106C42.7301 28.47 42.5574 28.9973 42.5574 29.688V34H40.9614V26.286H42.5574V27.168C42.8187 26.8507 43.1501 26.6033 43.5514 26.426C43.9527 26.2487 44.3821 26.16 44.8394 26.16C45.4554 26.16 46.0061 26.2907 46.4914 26.552C46.9767 26.8133 47.3501 27.1913 47.6114 27.686C47.8447 27.2193 48.2087 26.8507 48.7034 26.58C49.1981 26.3 49.7301 26.16 50.2994 26.16ZM56.8243 27.42C57.0949 27.0653 57.4636 26.7667 57.9303 26.524C58.3969 26.2813 58.9243 26.16 59.5123 26.16C60.1843 26.16 60.7956 26.328 61.3463 26.664C61.9063 26.9907 62.3449 27.4527 62.6623 28.05C62.9796 28.6473 63.1383 29.3333 63.1383 30.108C63.1383 30.8827 62.9796 31.578 62.6623 32.194C62.3449 32.8007 61.9063 33.2767 61.3463 33.622C60.7956 33.958 60.1843 34.126 59.5123 34.126C58.9243 34.126 58.4016 34.0093 57.9443 33.776C57.4869 33.5333 57.1136 33.2347 56.8243 32.88V37.668H55.2283V26.286H56.8243V27.42ZM61.5143 30.108C61.5143 29.576 61.4023 29.1187 61.1783 28.736C60.9636 28.344 60.6743 28.05 60.3103 27.854C59.9556 27.6487 59.5729 27.546 59.1623 27.546C58.7609 27.546 58.3783 27.6487 58.0143 27.854C57.6596 28.0593 57.3703 28.358 57.1463 28.75C56.9316 29.142 56.8243 29.604 56.8243 30.136C56.8243 30.668 56.9316 31.1347 57.1463 31.536C57.3703 31.928 57.6596 32.2267 58.0143 32.432C58.3783 32.6373 58.7609 32.74 59.1623 32.74C59.5729 32.74 59.9556 32.6373 60.3103 32.432C60.6743 32.2173 60.9636 31.9093 61.1783 31.508C61.4023 31.1067 61.5143 30.64 61.5143 30.108ZM66.0326 27.406C66.2659 27.014 66.5739 26.7107 66.9566 26.496C67.3486 26.272 67.8106 26.16 68.3426 26.16V27.812H67.9366C67.3112 27.812 66.8352 27.9707 66.5086 28.288C66.1912 28.6053 66.0326 29.156 66.0326 29.94V34H64.4366V26.286H66.0326V27.406ZM76.5996 29.954C76.5996 30.2433 76.5809 30.5047 76.5436 30.738H70.6496C70.6963 31.354 70.9249 31.8487 71.3356 32.222C71.7463 32.5953 72.2503 32.782 72.8476 32.782C73.7063 32.782 74.3129 32.4227 74.6676 31.704H76.3896C76.1563 32.4133 75.7316 32.9967 75.1156 33.454C74.5089 33.902 73.7529 34.126 72.8476 34.126C72.1103 34.126 71.4476 33.9627 70.8596 33.636C70.2809 33.3 69.8236 32.8333 69.4876 32.236C69.1609 31.6293 68.9976 30.9293 68.9976 30.136C68.9976 29.3427 69.1563 28.6473 69.4736 28.05C69.8003 27.4433 70.2529 26.9767 70.8316 26.65C71.4196 26.3233 72.0916 26.16 72.8476 26.16C73.5756 26.16 74.2243 26.3187 74.7936 26.636C75.3629 26.9533 75.8063 27.4013 76.1236 27.98C76.4409 28.5493 76.5996 29.2073 76.5996 29.954ZM74.9336 29.45C74.9243 28.862 74.7143 28.3907 74.3036 28.036C73.8929 27.6813 73.3843 27.504 72.7776 27.504C72.2269 27.504 71.7556 27.6813 71.3636 28.036C70.9716 28.3813 70.7383 28.8527 70.6636 29.45H74.9336ZM80.6902 34.126C80.0836 34.126 79.5376 34.0187 79.0522 33.804C78.5762 33.58 78.1982 33.2813 77.9182 32.908C77.6382 32.5253 77.4889 32.1007 77.4702 31.634H79.1222C79.1502 31.9607 79.3042 32.236 79.5842 32.46C79.8736 32.6747 80.2329 32.782 80.6622 32.782C81.1102 32.782 81.4556 32.698 81.6982 32.53C81.9502 32.3527 82.0762 32.1287 82.0762 31.858C82.0762 31.5687 81.9362 31.354 81.6562 31.214C81.3856 31.074 80.9516 30.92 80.3542 30.752C79.7756 30.5933 79.3042 30.4393 78.9402 30.29C78.5762 30.1407 78.2589 29.912 77.9882 29.604C77.7269 29.296 77.5962 28.89 77.5962 28.386C77.5962 27.9753 77.7176 27.602 77.9602 27.266C78.2029 26.9207 78.5482 26.65 78.9962 26.454C79.4536 26.258 79.9762 26.16 80.5642 26.16C81.4416 26.16 82.1462 26.384 82.6782 26.832C83.2196 27.2707 83.5089 27.8727 83.5462 28.638H81.9502C81.9222 28.2927 81.7822 28.0173 81.5302 27.812C81.2782 27.6067 80.9376 27.504 80.5082 27.504C80.0882 27.504 79.7662 27.5833 79.5422 27.742C79.3182 27.9007 79.2062 28.1107 79.2062 28.372C79.2062 28.5773 79.2809 28.75 79.4302 28.89C79.5796 29.03 79.7616 29.142 79.9762 29.226C80.1909 29.3007 80.5082 29.3987 80.9282 29.52C81.4882 29.6693 81.9456 29.8233 82.3002 29.982C82.6642 30.1313 82.9769 30.3553 83.2382 30.654C83.4996 30.9527 83.6349 31.3493 83.6442 31.844C83.6442 32.2827 83.5229 32.6747 83.2802 33.02C83.0376 33.3653 82.6922 33.636 82.2442 33.832C81.8056 34.028 81.2876 34.126 80.6902 34.126ZM87.8887 34.126C87.2821 34.126 86.7361 34.0187 86.2507 33.804C85.7747 33.58 85.3967 33.2813 85.1167 32.908C84.8367 32.5253 84.6874 32.1007 84.6687 31.634H86.3207C86.3487 31.9607 86.5027 32.236 86.7827 32.46C87.0721 32.6747 87.4314 32.782 87.8607 32.782C88.3087 32.782 88.6541 32.698 88.8967 32.53C89.1487 32.3527 89.2747 32.1287 89.2747 31.858C89.2747 31.5687 89.1347 31.354 88.8547 31.214C88.5841 31.074 88.1501 30.92 87.5527 30.752C86.9741 30.5933 86.5027 30.4393 86.1387 30.29C85.7747 30.1407 85.4574 29.912 85.1867 29.604C84.9254 29.296 84.7947 28.89 84.7947 28.386C84.7947 27.9753 84.9161 27.602 85.1587 27.266C85.4014 26.9207 85.7467 26.65 86.1947 26.454C86.6521 26.258 87.1747 26.16 87.7627 26.16C88.6401 26.16 89.3447 26.384 89.8768 26.832C90.4181 27.2707 90.7074 27.8727 90.7448 28.638H89.1487C89.1207 28.2927 88.9807 28.0173 88.7287 27.812C88.4767 27.6067 88.1361 27.504 87.7068 27.504C87.2867 27.504 86.9647 27.5833 86.7407 27.742C86.5167 27.9007 86.4047 28.1107 86.4047 28.372C86.4047 28.5773 86.4794 28.75 86.6287 28.89C86.7781 29.03 86.9601 29.142 87.1747 29.226C87.3894 29.3007 87.7067 29.3987 88.1268 29.52C88.6868 29.6693 89.1441 29.8233 89.4987 29.982C89.8627 30.1313 90.1754 30.3553 90.4367 30.654C90.6981 30.9527 90.8334 31.3493 90.8428 31.844C90.8428 32.2827 90.7214 32.6747 90.4787 33.02C90.2361 33.3653 89.8907 33.636 89.4427 33.832C89.0041 34.028 88.4861 34.126 87.8887 34.126ZM93.0993 25.264C92.8099 25.264 92.5673 25.166 92.3713 24.97C92.1753 24.774 92.0773 24.5313 92.0773 24.242C92.0773 23.9527 92.1753 23.71 92.3713 23.514C92.5673 23.318 92.8099 23.22 93.0993 23.22C93.3793 23.22 93.6173 23.318 93.8133 23.514C94.0093 23.71 94.1073 23.9527 94.1073 24.242C94.1073 24.5313 94.0093 24.774 93.8133 24.97C93.6173 25.166 93.3793 25.264 93.0993 25.264ZM93.8833 26.286V34H92.2873V26.286H93.8833ZM99.0447 34.126C98.3167 34.126 97.6587 33.9627 97.0707 33.636C96.4827 33.3 96.0207 32.8333 95.6847 32.236C95.3487 31.6293 95.1807 30.9293 95.1807 30.136C95.1807 29.352 95.3533 28.6567 95.6987 28.05C96.044 27.4433 96.5153 26.9767 97.1127 26.65C97.71 26.3233 98.3773 26.16 99.1147 26.16C99.852 26.16 100.519 26.3233 101.117 26.65C101.714 26.9767 102.185 27.4433 102.531 28.05C102.876 28.6567 103.049 29.352 103.049 30.136C103.049 30.92 102.871 31.6153 102.517 32.222C102.162 32.8287 101.677 33.3 101.061 33.636C100.454 33.9627 99.782 34.126 99.0447 34.126ZM99.0447 32.74C99.4553 32.74 99.838 32.642 100.193 32.446C100.557 32.25 100.851 31.956 101.075 31.564C101.299 31.172 101.411 30.696 101.411 30.136C101.411 29.576 101.303 29.1047 101.089 28.722C100.874 28.33 100.589 28.036 100.235 27.84C99.88 27.644 99.4973 27.546 99.0867 27.546C98.676 27.546 98.2933 27.644 97.9387 27.84C97.5933 28.036 97.318 28.33 97.1127 28.722C96.9073 29.1047 96.8047 29.576 96.8047 30.136C96.8047 30.9667 97.0147 31.6107 97.4347 32.068C97.864 32.516 98.4007 32.74 99.0447 32.74ZM108.238 26.16C108.845 26.16 109.386 26.286 109.862 26.538C110.348 26.79 110.726 27.1633 110.996 27.658C111.267 28.1527 111.402 28.75 111.402 29.45V34H109.82V29.688C109.82 28.9973 109.648 28.47 109.302 28.106C108.957 27.7327 108.486 27.546 107.888 27.546C107.291 27.546 106.815 27.7327 106.46 28.106C106.115 28.47 105.942 28.9973 105.942 29.688V34H104.346V26.286H105.942V27.168C106.204 26.8507 106.535 26.6033 106.936 26.426C107.347 26.2487 107.781 26.16 108.238 26.16ZM115.958 34.126C115.352 34.126 114.806 34.0187 114.32 33.804C113.844 33.58 113.466 33.2813 113.186 32.908C112.906 32.5253 112.757 32.1007 112.738 31.634H114.39C114.418 31.9607 114.572 32.236 114.852 32.46C115.142 32.6747 115.501 32.782 115.93 32.782C116.378 32.782 116.724 32.698 116.966 32.53C117.218 32.3527 117.344 32.1287 117.344 31.858C117.344 31.5687 117.204 31.354 116.924 31.214C116.654 31.074 116.22 30.92 115.622 30.752C115.044 30.5933 114.572 30.4393 114.208 30.29C113.844 30.1407 113.527 29.912 113.256 29.604C112.995 29.296 112.864 28.89 112.864 28.386C112.864 27.9753 112.986 27.602 113.228 27.266C113.471 26.9207 113.816 26.65 114.264 26.454C114.722 26.258 115.244 26.16 115.832 26.16C116.71 26.16 117.414 26.384 117.946 26.832C118.488 27.2707 118.777 27.8727 118.814 28.638H117.218C117.19 28.2927 117.05 28.0173 116.798 27.812C116.546 27.6067 116.206 27.504 115.776 27.504C115.356 27.504 115.034 27.5833 114.81 27.742C114.586 27.9007 114.474 28.1107 114.474 28.372C114.474 28.5773 114.549 28.75 114.698 28.89C114.848 29.03 115.03 29.142 115.244 29.226C115.459 29.3007 115.776 29.3987 116.196 29.52C116.756 29.6693 117.214 29.8233 117.568 29.982C117.932 30.1313 118.245 30.3553 118.506 30.654C118.768 30.9527 118.903 31.3493 118.912 31.844C118.912 32.2827 118.791 32.6747 118.548 33.02C118.306 33.3653 117.96 33.636 117.512 33.832C117.074 34.028 116.556 34.126 115.958 34.126Z" fill="#717680"/>
<path d="M37.364 53.6V50.504H43.148V68H39.692V53.6H37.364ZM47.8593 68.168C47.2513 68.168 46.7473 67.984 46.3473 67.616C45.9633 67.232 45.7713 66.76 45.7713 66.2C45.7713 65.64 45.9633 65.176 46.3473 64.808C46.7473 64.424 47.2513 64.232 47.8593 64.232C48.4513 64.232 48.9393 64.424 49.3233 64.808C49.7073 65.176 49.8993 65.64 49.8993 66.2C49.8993 66.76 49.7073 67.232 49.3233 67.616C48.9393 67.984 48.4513 68.168 47.8593 68.168ZM62.8777 53.048L56.4937 68H53.0857L59.5177 53.432H51.3097V50.552H62.8777V53.048ZM83.0581 51.248V68H79.6981V57.104L75.2101 68H72.6661L68.1541 57.104V68H64.7941V51.248H68.6101L73.9381 63.704L79.2661 51.248H83.0581Z" fill="#7C70AB"/>
<rect width="40" height="40" rx="20" transform="matrix(-1 0 0 1 200.5 29)" fill="#E9E3F1"/>
<path d="M174.1 45.8H174.329C175.209 45.8 175.929 46.52 175.929 47.4V55.4C175.929 56.28 175.209 57 174.329 57H174.1C173.22 57 172.5 56.28 172.5 55.4V47.4C172.5 46.52 173.22 45.8 174.1 45.8ZM180.5 41C181.38 41 182.1 41.72 182.1 42.6V55.4C182.1 56.28 181.38 57 180.5 57C179.62 57 178.9 56.28 178.9 55.4V42.6C178.9 41.72 179.62 41 180.5 41ZM186.9 50.1429C187.78 50.1429 188.5 50.8629 188.5 51.7429V55.4C188.5 56.28 187.78 57 186.9 57C186.02 57 185.3 56.28 185.3 55.4V51.7429C185.3 50.8629 186.02 50.1429 186.9 50.1429Z" fill="#7C70AB"/>
<line x1="37" y1="97.5" x2="200" y2="97.5" stroke="white" stroke-opacity="0.13" stroke-linecap="round"/>
<path d="M37.018 127.114C37.018 126.162 37.2373 125.308 37.676 124.552C38.124 123.796 38.726 123.208 39.482 122.788C40.2473 122.359 41.0827 122.144 41.988 122.144C43.024 122.144 43.9433 122.401 44.746 122.914C45.558 123.418 46.146 124.137 46.51 125.07H44.592C44.34 124.557 43.99 124.174 43.542 123.922C43.094 123.67 42.576 123.544 41.988 123.544C41.344 123.544 40.77 123.689 40.266 123.978C39.762 124.267 39.3653 124.683 39.076 125.224C38.796 125.765 38.656 126.395 38.656 127.114C38.656 127.833 38.796 128.463 39.076 129.004C39.3653 129.545 39.762 129.965 40.266 130.264C40.77 130.553 41.344 130.698 41.988 130.698C42.576 130.698 43.094 130.572 43.542 130.32C43.99 130.068 44.34 129.685 44.592 129.172H46.51C46.146 130.105 45.558 130.824 44.746 131.328C43.9433 131.832 43.024 132.084 41.988 132.084C41.0733 132.084 40.238 131.874 39.482 131.454C38.726 131.025 38.124 130.432 37.676 129.676C37.2373 128.92 37.018 128.066 37.018 127.114ZM49.6941 121.64V132H48.0981V121.64H49.6941ZM52.3215 123.264C52.0322 123.264 51.7895 123.166 51.5935 122.97C51.3975 122.774 51.2995 122.531 51.2995 122.242C51.2995 121.953 51.3975 121.71 51.5935 121.514C51.7895 121.318 52.0322 121.22 52.3215 121.22C52.6015 121.22 52.8395 121.318 53.0355 121.514C53.2315 121.71 53.3295 121.953 53.3295 122.242C53.3295 122.531 53.2315 122.774 53.0355 122.97C52.8395 123.166 52.6015 123.264 52.3215 123.264ZM53.1055 124.286V132H51.5095V124.286H53.1055ZM54.3889 128.136C54.3889 127.343 54.5476 126.647 54.8649 126.05C55.1916 125.443 55.6396 124.977 56.2089 124.65C56.7783 124.323 57.4316 124.16 58.1689 124.16C59.1023 124.16 59.8723 124.384 60.4789 124.832C61.0949 125.271 61.5103 125.901 61.7249 126.722H60.0029C59.8629 126.339 59.6389 126.041 59.3309 125.826C59.0229 125.611 58.6356 125.504 58.1689 125.504C57.5156 125.504 56.9929 125.737 56.6009 126.204C56.2183 126.661 56.0269 127.305 56.0269 128.136C56.0269 128.967 56.2183 129.615 56.6009 130.082C56.9929 130.549 57.5156 130.782 58.1689 130.782C59.0929 130.782 59.7043 130.376 60.0029 129.564H61.7249C61.5009 130.348 61.0809 130.973 60.4649 131.44C59.8489 131.897 59.0836 132.126 58.1689 132.126C57.4316 132.126 56.7783 131.963 56.2089 131.636C55.6396 131.3 55.1916 130.833 54.8649 130.236C54.5476 129.629 54.3889 128.929 54.3889 128.136ZM66.0875 128.15L69.6435 132H67.4875L64.6315 128.682V132H63.0355V121.64H64.6315V127.66L67.4315 124.286H69.6435L66.0875 128.15ZM73.3074 132.126C72.7008 132.126 72.1548 132.019 71.6694 131.804C71.1934 131.58 70.8154 131.281 70.5354 130.908C70.2554 130.525 70.1061 130.101 70.0874 129.634H71.7394C71.7674 129.961 71.9214 130.236 72.2014 130.46C72.4908 130.675 72.8501 130.782 73.2794 130.782C73.7274 130.782 74.0728 130.698 74.3154 130.53C74.5674 130.353 74.6934 130.129 74.6934 129.858C74.6934 129.569 74.5534 129.354 74.2734 129.214C74.0028 129.074 73.5688 128.92 72.9714 128.752C72.3928 128.593 71.9214 128.439 71.5574 128.29C71.1934 128.141 70.8761 127.912 70.6054 127.604C70.3441 127.296 70.2134 126.89 70.2134 126.386C70.2134 125.975 70.3348 125.602 70.5774 125.266C70.8201 124.921 71.1654 124.65 71.6134 124.454C72.0708 124.258 72.5934 124.16 73.1814 124.16C74.0588 124.16 74.7634 124.384 75.2954 124.832C75.8368 125.271 76.1261 125.873 76.1634 126.638H74.5674C74.5394 126.293 74.3994 126.017 74.1474 125.812C73.8954 125.607 73.5548 125.504 73.1254 125.504C72.7054 125.504 72.3834 125.583 72.1594 125.742C71.9354 125.901 71.8234 126.111 71.8234 126.372C71.8234 126.577 71.8981 126.75 72.0474 126.89C72.1968 127.03 72.3788 127.142 72.5934 127.226C72.8081 127.301 73.1254 127.399 73.5454 127.52C74.1054 127.669 74.5628 127.823 74.9174 127.982C75.2814 128.131 75.5941 128.355 75.8554 128.654C76.1168 128.953 76.2521 129.349 76.2614 129.844C76.2614 130.283 76.1401 130.675 75.8974 131.02C75.6548 131.365 75.3094 131.636 74.8614 131.832C74.4228 132.028 73.9048 132.126 73.3074 132.126Z" fill="#717680"/>
<path d="M40.7 156.736C39.1 155.904 38.3 154.616 38.3 152.872C38.3 152.008 38.516 151.224 38.948 150.52C39.396 149.8 40.06 149.232 40.94 148.816C41.836 148.384 42.924 148.168 44.204 148.168C45.484 148.168 46.564 148.384 47.444 148.816C48.34 149.232 49.004 149.8 49.436 150.52C49.884 151.224 50.108 152.008 50.108 152.872C50.108 153.752 49.892 154.528 49.46 155.2C49.028 155.856 48.452 156.368 47.732 156.736C48.612 157.12 49.3 157.68 49.796 158.416C50.292 159.152 50.54 160.024 50.54 161.032C50.54 162.12 50.26 163.072 49.7 163.888C49.156 164.688 48.404 165.304 47.444 165.736C46.484 166.168 45.404 166.384 44.204 166.384C43.004 166.384 41.924 166.168 40.964 165.736C40.02 165.304 39.268 164.688 38.708 163.888C38.164 163.072 37.892 162.12 37.892 161.032C37.892 160.024 38.14 159.152 38.636 158.416C39.132 157.664 39.82 157.104 40.7 156.736ZM46.844 153.352C46.844 152.568 46.604 151.96 46.124 151.528C45.66 151.096 45.02 150.88 44.204 150.88C43.404 150.88 42.764 151.096 42.284 151.528C41.82 151.96 41.588 152.576 41.588 153.376C41.588 154.096 41.828 154.672 42.308 155.104C42.804 155.536 43.436 155.752 44.204 155.752C44.972 155.752 45.604 155.536 46.1 155.104C46.596 154.656 46.844 154.072 46.844 153.352ZM44.204 158.2C43.292 158.2 42.548 158.432 41.972 158.896C41.412 159.36 41.132 160.024 41.132 160.888C41.132 161.688 41.404 162.344 41.948 162.856C42.508 163.352 43.26 163.6 44.204 163.6C45.148 163.6 45.892 163.344 46.436 162.832C46.98 162.32 47.252 161.672 47.252 160.888C47.252 160.04 46.972 159.384 46.412 158.92C45.852 158.44 45.116 158.2 44.204 158.2ZM63.8499 151.048L57.4659 166H54.0579L60.4899 151.432H52.2819V148.552H63.8499V151.048ZM67.2543 166.168C66.6463 166.168 66.1423 165.984 65.7423 165.616C65.3583 165.232 65.1663 164.76 65.1663 164.2C65.1663 163.64 65.3583 163.176 65.7423 162.808C66.1423 162.424 66.6463 162.232 67.2543 162.232C67.8463 162.232 68.3343 162.424 68.7183 162.808C69.1023 163.176 69.2943 163.64 69.2943 164.2C69.2943 164.76 69.1023 165.232 68.7183 165.616C68.3343 165.984 67.8463 166.168 67.2543 166.168ZM72.1927 162.208C73.7287 160.928 74.9527 159.864 75.8647 159.016C76.7767 158.152 77.5367 157.256 78.1447 156.328C78.7527 155.4 79.0567 154.488 79.0567 153.592C79.0567 152.776 78.8647 152.136 78.4807 151.672C78.0967 151.208 77.5047 150.976 76.7047 150.976C75.9047 150.976 75.2887 151.248 74.8567 151.792C74.4247 152.32 74.2007 153.048 74.1847 153.976H70.9207C70.9847 152.056 71.5527 150.6 72.6247 149.608C73.7127 148.616 75.0887 148.12 76.7527 148.12C78.5767 148.12 79.9767 148.608 80.9527 149.584C81.9287 150.544 82.4167 151.816 82.4167 153.4C82.4167 154.648 82.0807 155.84 81.4087 156.976C80.7367 158.112 79.9687 159.104 79.1047 159.952C78.2407 160.784 77.1127 161.792 75.7207 162.976H82.8007V165.76H70.9447V163.264L72.1927 162.208ZM92.6939 166L88.1819 160.336V166H84.8219V148.24H88.1819V158.344L92.6459 152.704H97.0139L91.1579 159.376L97.0619 166H92.6939Z" fill="#4EA2CA"/>
<rect width="40" height="40" rx="20" transform="matrix(-1 0 0 1 200.5 127)" fill="#E6F3F9"/>
<path d="M175.488 141.028C175.422 140.107 175.989 138.286 177.544 137.525C178.186 137.135 179.947 136.531 181.631 137.607C183.291 138.666 183.403 140.229 183.508 141.017" stroke="#4FA2CA" stroke-width="1.5" stroke-linecap="round" stroke-linejoin="round"/>
<path d="M185.665 157.002C185.62 155.366 185.723 155.204 185.842 154.84C185.962 154.476 186.799 153.164 187.095 152.226C188.052 149.192 187.16 148.547 185.97 147.686C184.65 146.732 182.275 146.258 181.041 146.363V141.524C181.041 140.701 180.252 140.027 179.409 140.027C178.566 140.027 177.791 140.701 177.791 141.524V149.836L176.072 148.345C175.512 147.752 174.613 147.692 173.999 148.231C173.418 148.743 173.333 149.603 173.804 150.214L174.935 151.678M174.935 151.678C175.178 151.987 175.451 152.337 175.76 152.748M174.935 151.678L175.76 152.748M174.935 151.678C174.435 151.044 174.057 150.583 173.732 150.125M177.744 157.002V156.149C177.782 155.096 176.998 154.409 175.976 153.035C175.902 152.936 175.83 152.841 175.76 152.748M175.76 152.748L176.783 154.074" stroke="#4FA2CA" stroke-width="1.5" stroke-linecap="round" stroke-linejoin="round"/>
</g>
<defs>
<filter id="filter0_dd_11574_15980" x="0.5" y="0" width="236" height="236" filterUnits="userSpaceOnUse" color-interpolation-filters="sRGB">
<feFlood flood-opacity="0" result="BackgroundImageFix"/>
<feColorMatrix in="SourceAlpha" type="matrix" values="0 0 0 0 0 0 0 0 0 0 0 0 0 0 0 0 0 0 127 0" result="hardAlpha"/>
<feMorphology radius="4" operator="erode" in="SourceAlpha" result="effect1_dropShadow_11574_15980"/>
<feOffset dy="8"/>
<feGaussianBlur stdDeviation="4"/>
<feColorMatrix type="matrix" values="0 0 0 0 0.0392157 0 0 0 0 0.0496732 0 0 0 0 0.0705882 0 0 0 0.03 0"/>
<feBlend mode="normal" in2="BackgroundImageFix" result="effect1_dropShadow_11574_15980"/>
<feColorMatrix in="SourceAlpha" type="matrix" values="0 0 0 0 0 0 0 0 0 0 0 0 0 0 0 0 0 0 127 0" result="hardAlpha"/>
<feMorphology radius="4" operator="erode" in="SourceAlpha" result="effect2_dropShadow_11574_15980"/>
<feOffset dy="20"/>
<feGaussianBlur stdDeviation="12"/>
<feColorMatrix type="matrix" values="0 0 0 0 0.0392157 0 0 0 0 0.0496732 0 0 0 0 0.0705882 0 0 0 0.08 0"/>
<feBlend mode="normal" in2="effect1_dropShadow_11574_15980" result="effect2_dropShadow_11574_15980"/>
<feBlend mode="normal" in="SourceGraphic" in2="effect2_dropShadow_11574_15980" result="shape"/>
</filter>
</defs>
</svg>
