<svg width="720" height="345" viewBox="0 0 720 345" fill="none" xmlns="http://www.w3.org/2000/svg">
<path d="M0 64C0 33.8301 0 18.7452 9.37258 9.37258C18.7452 0 33.8301 0 64 0H656C686.17 0 701.255 0 710.627 9.37258C720 18.7452 720 33.8301 720 64V345H0V64Z" fill="#E6F3F9"/>
<g clip-path="url(#clip0_11574_15933)">
<line x1="73" y1="107.5" x2="724" y2="107.5" stroke="#E9EDF7" stroke-dasharray="7 6"/>
<line x1="73" y1="154.5" x2="724" y2="154.5" stroke="#717680" stroke-dasharray="7 6"/>
<line x1="73" y1="201.5" x2="724" y2="201.5" stroke="#717680" stroke-dasharray="7 6"/>
<line x1="73" y1="248.5" x2="724" y2="248.5" stroke="#717680" stroke-dasharray="7 6"/>
<line x1="73" y1="295.5" x2="724" y2="295.5" stroke="#717680" stroke-dasharray="7 6"/>
</g>
<rect x="655" y="28" width="33" height="33" rx="7" fill="white"/>
<g clip-path="url(#clip1_11574_15933)">
<path d="M666.4 42.2H666.6C667.37 42.2 668 42.83 668 43.6V50.6C668 51.37 667.37 52 666.6 52H666.4C665.63 52 665 51.37 665 50.6V43.6C665 42.83 665.63 42.2 666.4 42.2ZM672 38C672.77 38 673.4 38.63 673.4 39.4V50.6C673.4 51.37 672.77 52 672 52C671.23 52 670.6 51.37 670.6 50.6V39.4C670.6 38.63 671.23 38 672 38ZM677.6 46C678.37 46 679 46.63 679 47.4V50.6C679 51.37 678.37 52 677.6 52C676.83 52 676.2 51.37 676.2 50.6V47.4C676.2 46.63 676.83 46 677.6 46Z" fill="#4FA2CA"/>
</g>
<path d="M104.23 194.5C90.7773 193.3 77.8047 199 73 202V305H688V130C680.312 142.4 655.969 152.5 644.758 156C642.756 153 635.629 148.3 623.137 153.5C610.645 158.7 576.291 164.333 560.676 166.5C556.271 161.333 544.58 152.5 533.049 158.5C518.635 166 492.209 172 488.605 169C485.002 166 472.99 156 457.375 162C441.76 168 421.34 174.5 406.926 174.5C392.512 174.5 384.104 167.5 376.896 163.5C369.689 159.5 363.684 167.5 357.678 170.5C351.672 173.5 349.27 174.5 344.465 172C339.66 169.5 338.459 170 333.654 172C328.85 174 319.24 178.5 298.82 184.5C278.4 190.5 275.998 178.5 265.188 174.5C254.377 170.5 235.158 177.5 219.543 182.5C203.928 187.5 201.525 187 190.715 188C179.904 189 173.898 183.5 165.49 182.5C157.082 181.5 149.875 187.5 140.266 194.5C130.656 201.5 121.047 196 104.23 194.5Z" fill="url(#paint0_linear_11574_15933)"/>
<path d="M76 202C80.8152 198.958 90.2048 193.686 103.687 194.902C120.54 196.423 130.171 202 139.801 194.902C149.431 187.805 156.654 181.721 165.081 182.735C173.507 183.749 179.526 189.326 190.36 188.312C201.195 187.298 203.602 187.805 219.252 182.735C234.901 177.665 254.162 170.568 264.996 174.624C275.83 178.679 278.237 190.847 298.702 184.763C319.166 178.679 328.797 174.117 333.612 172.089C338.427 170.061 339.631 169.554 344.446 172.089C349.261 174.624 351.669 173.61 357.688 170.568C363.707 167.526 369.726 159.415 376.949 163.47C384.171 167.526 392.598 174.624 407.043 174.624C421.489 174.624 441.953 168.033 457.603 161.949C473.252 155.866 485.29 166.005 488.901 169.047C492.513 172.089 518.996 166.005 533.442 158.401C544.998 152.317 556.715 161.273 561.129 166.512C576.778 164.315 611.207 158.603 623.726 153.331C636.246 148.059 643.388 152.824 645.395 155.866C656.63 152.317 680.981 142.181 687 129" stroke="#869447" stroke-width="3" stroke-linecap="round" stroke-linejoin="round"/>
<circle cx="542" cy="155" r="8" fill="#383F21"/>
<circle cx="542" cy="155" r="6" fill="white"/>
<path d="M494 120C494 116.686 496.686 114 500 114H582C585.314 114 588 116.686 588 120V132.421C588 135.735 585.314 138.421 582 138.421H554.644C550.253 138.421 545.96 139.714 542.299 142.139C541.512 142.661 540.488 142.661 539.701 142.139C536.04 139.714 531.747 138.421 527.356 138.421H500C496.686 138.421 494 135.735 494 132.421V120Z" fill="white"/>
<path d="M505.608 124.059C505.644 123.501 505.857 123.066 506.247 122.754C506.643 122.442 507.147 122.286 507.759 122.286C508.179 122.286 508.542 122.361 508.848 122.511C509.154 122.661 509.385 122.865 509.541 123.123C509.697 123.381 509.775 123.672 509.775 123.996C509.775 124.368 509.676 124.686 509.478 124.95C509.28 125.214 509.043 125.391 508.767 125.481V125.517C509.121 125.625 509.397 125.823 509.595 126.111C509.793 126.393 509.892 126.756 509.892 127.2C509.892 127.554 509.811 127.869 509.649 128.145C509.487 128.421 509.247 128.64 508.929 128.802C508.611 128.958 508.23 129.036 507.786 129.036C507.138 129.036 506.604 128.871 506.184 128.541C505.77 128.205 505.548 127.725 505.518 127.101H506.508C506.532 127.419 506.655 127.68 506.877 127.884C507.099 128.082 507.399 128.181 507.777 128.181C508.143 128.181 508.425 128.082 508.623 127.884C508.821 127.68 508.92 127.419 508.92 127.101C508.92 126.681 508.785 126.384 508.515 126.21C508.251 126.03 507.843 125.94 507.291 125.94H507.057V125.094H507.3C507.786 125.088 508.155 125.007 508.407 124.851C508.665 124.695 508.794 124.449 508.794 124.113C508.794 123.825 508.701 123.597 508.515 123.429C508.329 123.255 508.065 123.168 507.723 123.168C507.387 123.168 507.126 123.255 506.94 123.429C506.754 123.597 506.643 123.807 506.607 124.059H505.608ZM511.896 125.571C511.272 125.259 510.96 124.767 510.96 124.095C510.96 123.771 511.041 123.474 511.203 123.204C511.365 122.934 511.608 122.721 511.932 122.565C512.256 122.403 512.652 122.322 513.12 122.322C513.582 122.322 513.975 122.403 514.299 122.565C514.629 122.721 514.875 122.934 515.037 123.204C515.199 123.474 515.28 123.771 515.28 124.095C515.28 124.431 515.193 124.728 515.019 124.986C514.851 125.238 514.626 125.433 514.344 125.571C514.686 125.697 514.956 125.904 515.154 126.192C515.352 126.474 515.451 126.807 515.451 127.191C515.451 127.581 515.352 127.926 515.154 128.226C514.956 128.526 514.68 128.757 514.326 128.919C513.972 129.081 513.57 129.162 513.12 129.162C512.67 129.162 512.268 129.081 511.914 128.919C511.566 128.757 511.293 128.526 511.095 128.226C510.897 127.926 510.798 127.581 510.798 127.191C510.798 126.801 510.897 126.465 511.095 126.183C511.293 125.901 511.56 125.697 511.896 125.571ZM514.299 124.221C514.299 123.885 514.194 123.627 513.984 123.447C513.774 123.267 513.486 123.177 513.12 123.177C512.76 123.177 512.475 123.267 512.265 123.447C512.055 123.627 511.95 123.888 511.95 124.23C511.95 124.53 512.058 124.776 512.274 124.968C512.496 125.154 512.778 125.247 513.12 125.247C513.462 125.247 513.744 125.151 513.966 124.959C514.188 124.767 514.299 124.521 514.299 124.221ZM513.12 126.021C512.724 126.021 512.4 126.12 512.148 126.318C511.902 126.51 511.779 126.789 511.779 127.155C511.779 127.497 511.899 127.776 512.139 127.992C512.379 128.202 512.706 128.307 513.12 128.307C513.528 128.307 513.849 128.199 514.083 127.983C514.323 127.767 514.443 127.491 514.443 127.155C514.443 126.795 514.32 126.516 514.074 126.318C513.834 126.12 513.516 126.021 513.12 126.021ZM516.223 127.632V126.858L519.247 122.52H520.489V126.741H521.326V127.632H520.489V129H519.481V127.632H516.223ZM519.526 123.564L517.402 126.741H519.526V123.564ZM525.578 129L523.157 126.201V129H522.131V122.745H523.157V125.598L525.587 122.745H526.874L524.156 125.877L526.919 129H525.578ZM530.83 122.745V129H529.804V122.745H530.83ZM538 123.96C538.39 123.96 538.738 124.041 539.044 124.203C539.356 124.365 539.599 124.605 539.773 124.923C539.953 125.241 540.043 125.625 540.043 126.075V129H539.026V126.228C539.026 125.784 538.915 125.445 538.693 125.211C538.471 124.971 538.168 124.851 537.784 124.851C537.4 124.851 537.094 124.971 536.866 125.211C536.644 125.445 536.533 125.784 536.533 126.228V129H535.516V126.228C535.516 125.784 535.405 125.445 535.183 125.211C534.961 124.971 534.658 124.851 534.274 124.851C533.89 124.851 533.584 124.971 533.356 125.211C533.134 125.445 533.023 125.784 533.023 126.228V129H531.997V124.041H533.023V124.608C533.191 124.404 533.404 124.245 533.662 124.131C533.92 124.017 534.196 123.96 534.49 123.96C534.886 123.96 535.24 124.044 535.552 124.212C535.864 124.38 536.104 124.623 536.272 124.941C536.422 124.641 536.656 124.404 536.974 124.23C537.292 124.05 537.634 123.96 538 123.96ZM542.195 124.77C542.369 124.542 542.606 124.35 542.906 124.194C543.206 124.038 543.545 123.96 543.923 123.96C544.355 123.96 544.748 124.068 545.102 124.284C545.462 124.494 545.744 124.791 545.948 125.175C546.152 125.559 546.254 126 546.254 126.498C546.254 126.996 546.152 127.443 545.948 127.839C545.744 128.229 545.462 128.535 545.102 128.757C544.748 128.973 544.355 129.081 543.923 129.081C543.545 129.081 543.209 129.006 542.915 128.856C542.621 128.7 542.381 128.508 542.195 128.28V131.358H541.169V124.041H542.195V124.77ZM545.21 126.498C545.21 126.156 545.138 125.862 544.994 125.616C544.856 125.364 544.67 125.175 544.436 125.049C544.208 124.917 543.962 124.851 543.698 124.851C543.44 124.851 543.194 124.917 542.96 125.049C542.732 125.181 542.546 125.373 542.402 125.625C542.264 125.877 542.195 126.174 542.195 126.516C542.195 126.858 542.264 127.158 542.402 127.416C542.546 127.668 542.732 127.86 542.96 127.992C543.194 128.124 543.44 128.19 543.698 128.19C543.962 128.19 544.208 128.124 544.436 127.992C544.67 127.854 544.856 127.656 544.994 127.398C545.138 127.14 545.21 126.84 545.21 126.498ZM548.114 124.761C548.264 124.509 548.462 124.314 548.708 124.176C548.96 124.032 549.257 123.96 549.599 123.96V125.022H549.338C548.936 125.022 548.63 125.124 548.42 125.328C548.216 125.532 548.114 125.886 548.114 126.39V129H547.088V124.041H548.114V124.761ZM554.907 126.399C554.907 126.585 554.895 126.753 554.871 126.903H551.082C551.112 127.299 551.259 127.617 551.523 127.857C551.787 128.097 552.111 128.217 552.495 128.217C553.047 128.217 553.437 127.986 553.665 127.524H554.772C554.622 127.98 554.349 128.355 553.953 128.649C553.563 128.937 553.077 129.081 552.495 129.081C552.021 129.081 551.595 128.976 551.217 128.766C550.845 128.55 550.551 128.25 550.335 127.866C550.125 127.476 550.02 127.026 550.02 126.516C550.02 126.006 550.122 125.559 550.326 125.175C550.536 124.785 550.827 124.485 551.199 124.275C551.577 124.065 552.009 123.96 552.495 123.96C552.963 123.96 553.38 124.062 553.746 124.266C554.112 124.47 554.397 124.758 554.601 125.13C554.805 125.496 554.907 125.919 554.907 126.399ZM553.836 126.075C553.83 125.697 553.695 125.394 553.431 125.166C553.167 124.938 552.84 124.824 552.45 124.824C552.096 124.824 551.793 124.938 551.541 125.166C551.289 125.388 551.139 125.691 551.091 126.075H553.836ZM557.537 129.081C557.147 129.081 556.796 129.012 556.484 128.874C556.178 128.73 555.935 128.538 555.755 128.298C555.575 128.052 555.479 127.779 555.467 127.479H556.529C556.547 127.689 556.646 127.866 556.826 128.01C557.012 128.148 557.243 128.217 557.519 128.217C557.807 128.217 558.029 128.163 558.185 128.055C558.347 127.941 558.428 127.797 558.428 127.623C558.428 127.437 558.338 127.299 558.158 127.209C557.984 127.119 557.705 127.02 557.321 126.912C556.949 126.81 556.646 126.711 556.412 126.615C556.178 126.519 555.974 126.372 555.8 126.174C555.632 125.976 555.548 125.715 555.548 125.391C555.548 125.127 555.626 124.887 555.782 124.671C555.938 124.449 556.16 124.275 556.448 124.149C556.742 124.023 557.078 123.96 557.456 123.96C558.02 123.96 558.473 124.104 558.815 124.392C559.163 124.674 559.349 125.061 559.373 125.553H558.347C558.329 125.331 558.239 125.154 558.077 125.022C557.915 124.89 557.696 124.824 557.42 124.824C557.15 124.824 556.943 124.875 556.799 124.977C556.655 125.079 556.583 125.214 556.583 125.382C556.583 125.514 556.631 125.625 556.727 125.715C556.823 125.805 556.94 125.877 557.078 125.931C557.216 125.979 557.42 126.042 557.69 126.12C558.05 126.216 558.344 126.315 558.572 126.417C558.806 126.513 559.007 126.657 559.175 126.849C559.343 127.041 559.43 127.296 559.436 127.614C559.436 127.896 559.358 128.148 559.202 128.37C559.046 128.592 558.824 128.766 558.536 128.892C558.254 129.018 557.921 129.081 557.537 129.081ZM562.165 129.081C561.775 129.081 561.424 129.012 561.112 128.874C560.806 128.73 560.563 128.538 560.383 128.298C560.203 128.052 560.107 127.779 560.095 127.479H561.157C561.175 127.689 561.274 127.866 561.454 128.01C561.64 128.148 561.871 128.217 562.147 128.217C562.435 128.217 562.657 128.163 562.813 128.055C562.975 127.941 563.056 127.797 563.056 127.623C563.056 127.437 562.966 127.299 562.786 127.209C562.612 127.119 562.333 127.02 561.949 126.912C561.577 126.81 561.274 126.711 561.04 126.615C560.806 126.519 560.602 126.372 560.428 126.174C560.26 125.976 560.176 125.715 560.176 125.391C560.176 125.127 560.254 124.887 560.41 124.671C560.566 124.449 560.788 124.275 561.076 124.149C561.37 124.023 561.706 123.96 562.084 123.96C562.648 123.96 563.101 124.104 563.443 124.392C563.791 124.674 563.977 125.061 564.001 125.553H562.975C562.957 125.331 562.867 125.154 562.705 125.022C562.543 124.89 562.324 124.824 562.048 124.824C561.778 124.824 561.571 124.875 561.427 124.977C561.283 125.079 561.211 125.214 561.211 125.382C561.211 125.514 561.259 125.625 561.355 125.715C561.451 125.805 561.568 125.877 561.706 125.931C561.844 125.979 562.048 126.042 562.318 126.12C562.678 126.216 562.972 126.315 563.2 126.417C563.434 126.513 563.635 126.657 563.803 126.849C563.971 127.041 564.058 127.296 564.064 127.614C564.064 127.896 563.986 128.148 563.83 128.37C563.674 128.592 563.452 128.766 563.164 128.892C562.882 129.018 562.549 129.081 562.165 129.081ZM565.514 123.384C565.328 123.384 565.172 123.321 565.046 123.195C564.92 123.069 564.857 122.913 564.857 122.727C564.857 122.541 564.92 122.385 565.046 122.259C565.172 122.133 565.328 122.07 565.514 122.07C565.694 122.07 565.847 122.133 565.973 122.259C566.099 122.385 566.162 122.541 566.162 122.727C566.162 122.913 566.099 123.069 565.973 123.195C565.847 123.321 565.694 123.384 565.514 123.384ZM566.018 124.041V129H564.992V124.041H566.018ZM569.336 129.081C568.868 129.081 568.445 128.976 568.067 128.766C567.689 128.55 567.392 128.25 567.176 127.866C566.96 127.476 566.852 127.026 566.852 126.516C566.852 126.012 566.963 125.565 567.185 125.175C567.407 124.785 567.71 124.485 568.094 124.275C568.478 124.065 568.907 123.96 569.381 123.96C569.855 123.96 570.284 124.065 570.668 124.275C571.052 124.485 571.355 124.785 571.577 125.175C571.799 125.565 571.91 126.012 571.91 126.516C571.91 127.02 571.796 127.467 571.568 127.857C571.34 128.247 571.028 128.55 570.632 128.766C570.242 128.976 569.81 129.081 569.336 129.081ZM569.336 128.19C569.6 128.19 569.846 128.127 570.074 128.001C570.308 127.875 570.497 127.686 570.641 127.434C570.785 127.182 570.857 126.876 570.857 126.516C570.857 126.156 570.788 125.853 570.65 125.607C570.512 125.355 570.329 125.166 570.101 125.04C569.873 124.914 569.627 124.851 569.363 124.851C569.099 124.851 568.853 124.914 568.625 125.04C568.403 125.166 568.226 125.355 568.094 125.607C567.962 125.853 567.896 126.156 567.896 126.516C567.896 127.05 568.031 127.464 568.301 127.758C568.577 128.046 568.922 128.19 569.336 128.19ZM575.247 123.96C575.637 123.96 575.985 124.041 576.291 124.203C576.603 124.365 576.846 124.605 577.02 124.923C577.194 125.241 577.281 125.625 577.281 126.075V129H576.264V126.228C576.264 125.784 576.153 125.445 575.931 125.211C575.709 124.971 575.406 124.851 575.022 124.851C574.638 124.851 574.332 124.971 574.104 125.211C573.882 125.445 573.771 125.784 573.771 126.228V129H572.745V124.041H573.771V124.608C573.939 124.404 574.152 124.245 574.41 124.131C574.674 124.017 574.953 123.96 575.247 123.96Z" fill="black"/>
<path d="M41.716 159V157.284H37.492V156.348L41.524 150.6H42.904V156.24H44.104V157.284H42.904V159H41.716ZM38.8 156.24H41.776V151.92L38.8 156.24ZM48.3283 159.144C47.6003 159.144 46.9723 158.964 46.4443 158.604C45.9243 158.236 45.5243 157.728 45.2443 157.08C44.9643 156.424 44.8243 155.664 44.8243 154.8C44.8243 153.936 44.9643 153.18 45.2443 152.532C45.5243 151.876 45.9243 151.368 46.4443 151.008C46.9723 150.64 47.6003 150.456 48.3283 150.456C49.0643 150.456 49.6883 150.64 50.2003 151.008C50.7203 151.368 51.1203 151.876 51.4003 152.532C51.6883 153.18 51.8323 153.936 51.8323 154.8C51.8323 155.664 51.6883 156.424 51.4003 157.08C51.1203 157.728 50.7203 158.236 50.2003 158.604C49.6883 158.964 49.0643 159.144 48.3283 159.144ZM48.3283 158.076C48.7683 158.076 49.1563 157.944 49.4923 157.68C49.8363 157.416 50.1043 157.04 50.2963 156.552C50.4963 156.064 50.5963 155.48 50.5963 154.8C50.5963 154.112 50.4963 153.528 50.2963 153.048C50.1043 152.56 49.8363 152.188 49.4923 151.932C49.1563 151.668 48.7683 151.536 48.3283 151.536C47.8883 151.536 47.4963 151.668 47.1523 151.932C46.8083 152.188 46.5363 152.56 46.3363 153.048C46.1443 153.528 46.0483 154.112 46.0483 154.8C46.0483 155.48 46.1443 156.064 46.3363 156.552C46.5363 157.04 46.8083 157.416 47.1523 157.68C47.4963 157.944 47.8883 158.076 48.3283 158.076ZM56.2328 159.144C55.5048 159.144 54.8768 158.964 54.3488 158.604C53.8288 158.236 53.4288 157.728 53.1488 157.08C52.8688 156.424 52.7288 155.664 52.7288 154.8C52.7288 153.936 52.8688 153.18 53.1488 152.532C53.4288 151.876 53.8288 151.368 54.3488 151.008C54.8768 150.64 55.5048 150.456 56.2328 150.456C56.9688 150.456 57.5928 150.64 58.1048 151.008C58.6248 151.368 59.0248 151.876 59.3048 152.532C59.5928 153.18 59.7368 153.936 59.7368 154.8C59.7368 155.664 59.5928 156.424 59.3048 157.08C59.0248 157.728 58.6248 158.236 58.1048 158.604C57.5928 158.964 56.9688 159.144 56.2328 159.144ZM56.2328 158.076C56.6728 158.076 57.0608 157.944 57.3968 157.68C57.7408 157.416 58.0088 157.04 58.2008 156.552C58.4008 156.064 58.5008 155.48 58.5008 154.8C58.5008 154.112 58.4008 153.528 58.2008 153.048C58.0088 152.56 57.7408 152.188 57.3968 151.932C57.0608 151.668 56.6728 151.536 56.2328 151.536C55.7928 151.536 55.4008 151.668 55.0568 151.932C54.7128 152.188 54.4408 152.56 54.2408 153.048C54.0488 153.528 53.9528 154.112 53.9528 154.8C53.9528 155.48 54.0488 156.064 54.2408 156.552C54.4408 157.04 54.7128 157.416 55.0568 157.68C55.4008 157.944 55.7928 158.076 56.2328 158.076ZM60.9453 159V150.6H62.1453V154.248L65.5053 150.6H67.0053L63.8973 153.936L67.0653 159H65.6013L63.0333 154.872L62.1453 155.82V159H60.9453Z" fill="#A4A7AE"/>
<path d="M40.564 206.144C40.028 206.144 39.536 206.048 39.088 205.856C38.648 205.656 38.296 205.36 38.032 204.968C37.776 204.568 37.64 204.068 37.624 203.468H38.824C38.832 203.772 38.904 204.048 39.04 204.296C39.176 204.544 39.372 204.744 39.628 204.896C39.892 205.04 40.204 205.112 40.564 205.112C40.924 205.112 41.224 205.044 41.464 204.908C41.712 204.772 41.896 204.588 42.016 204.356C42.144 204.124 42.208 203.864 42.208 203.576C42.208 203.224 42.12 202.936 41.944 202.712C41.776 202.488 41.544 202.32 41.248 202.208C40.96 202.096 40.636 202.04 40.276 202.04H39.652V201.044H40.276C40.788 201.044 41.196 200.928 41.5 200.696C41.804 200.456 41.956 200.124 41.956 199.7C41.956 199.348 41.836 199.06 41.596 198.836C41.364 198.604 41.02 198.488 40.564 198.488C40.108 198.488 39.748 198.616 39.484 198.872C39.22 199.128 39.072 199.452 39.04 199.844H37.84C37.864 199.372 37.992 198.956 38.224 198.596C38.456 198.228 38.772 197.948 39.172 197.756C39.572 197.556 40.036 197.456 40.564 197.456C41.132 197.456 41.604 197.556 41.98 197.756C42.364 197.948 42.656 198.208 42.856 198.536C43.056 198.864 43.156 199.224 43.156 199.616C43.156 199.912 43.096 200.192 42.976 200.456C42.864 200.712 42.704 200.932 42.496 201.116C42.288 201.3 42.032 201.432 41.728 201.512C42.048 201.568 42.332 201.692 42.58 201.884C42.836 202.068 43.036 202.304 43.18 202.592C43.332 202.88 43.408 203.212 43.408 203.588C43.408 204.044 43.3 204.468 43.084 204.86C42.868 205.244 42.548 205.556 42.124 205.796C41.708 206.028 41.188 206.144 40.564 206.144ZM48.0119 206.144C47.2839 206.144 46.6559 205.964 46.1279 205.604C45.6079 205.236 45.2079 204.728 44.9279 204.08C44.6479 203.424 44.5079 202.664 44.5079 201.8C44.5079 200.936 44.6479 200.18 44.9279 199.532C45.2079 198.876 45.6079 198.368 46.1279 198.008C46.6559 197.64 47.2839 197.456 48.0119 197.456C48.7479 197.456 49.3719 197.64 49.8839 198.008C50.4039 198.368 50.8039 198.876 51.0839 199.532C51.3719 200.18 51.5159 200.936 51.5159 201.8C51.5159 202.664 51.3719 203.424 51.0839 204.08C50.8039 204.728 50.4039 205.236 49.8839 205.604C49.3719 205.964 48.7479 206.144 48.0119 206.144ZM48.0119 205.076C48.4519 205.076 48.8399 204.944 49.1759 204.68C49.5199 204.416 49.7879 204.04 49.9799 203.552C50.1799 203.064 50.2799 202.48 50.2799 201.8C50.2799 201.112 50.1799 200.528 49.9799 200.048C49.7879 199.56 49.5199 199.188 49.1759 198.932C48.8399 198.668 48.4519 198.536 48.0119 198.536C47.5719 198.536 47.1799 198.668 46.8359 198.932C46.4919 199.188 46.2199 199.56 46.0199 200.048C45.8279 200.528 45.7319 201.112 45.7319 201.8C45.7319 202.48 45.8279 203.064 46.0199 203.552C46.2199 204.04 46.4919 204.416 46.8359 204.68C47.1799 204.944 47.5719 205.076 48.0119 205.076ZM55.9164 206.144C55.1884 206.144 54.5604 205.964 54.0324 205.604C53.5124 205.236 53.1124 204.728 52.8324 204.08C52.5524 203.424 52.4124 202.664 52.4124 201.8C52.4124 200.936 52.5524 200.18 52.8324 199.532C53.1124 198.876 53.5124 198.368 54.0324 198.008C54.5604 197.64 55.1884 197.456 55.9164 197.456C56.6524 197.456 57.2764 197.64 57.7884 198.008C58.3084 198.368 58.7084 198.876 58.9884 199.532C59.2764 200.18 59.4204 200.936 59.4204 201.8C59.4204 202.664 59.2764 203.424 58.9884 204.08C58.7084 204.728 58.3084 205.236 57.7884 205.604C57.2764 205.964 56.6524 206.144 55.9164 206.144ZM55.9164 205.076C56.3564 205.076 56.7444 204.944 57.0804 204.68C57.4244 204.416 57.6924 204.04 57.8844 203.552C58.0844 203.064 58.1844 202.48 58.1844 201.8C58.1844 201.112 58.0844 200.528 57.8844 200.048C57.6924 199.56 57.4244 199.188 57.0804 198.932C56.7444 198.668 56.3564 198.536 55.9164 198.536C55.4764 198.536 55.0844 198.668 54.7404 198.932C54.3964 199.188 54.1244 199.56 53.9244 200.048C53.7324 200.528 53.6364 201.112 53.6364 201.8C53.6364 202.48 53.7324 203.064 53.9244 203.552C54.1244 204.04 54.3964 204.416 54.7404 204.68C55.0844 204.944 55.4764 205.076 55.9164 205.076ZM60.6289 206V197.6H61.8289V201.248L65.1889 197.6H66.6889L63.5809 200.936L66.7489 206H65.2849L62.7169 201.872L61.8289 202.82V206H60.6289Z" fill="#A4A7AE"/>
<path d="M37.72 253V252.136C38.288 251.704 38.824 251.268 39.328 250.828C39.84 250.388 40.296 249.952 40.696 249.52C41.096 249.08 41.408 248.652 41.632 248.236C41.864 247.812 41.98 247.408 41.98 247.024C41.98 246.752 41.928 246.5 41.824 246.268C41.728 246.036 41.572 245.848 41.356 245.704C41.148 245.552 40.864 245.476 40.504 245.476C40.152 245.476 39.86 245.552 39.628 245.704C39.396 245.856 39.22 246.06 39.1 246.316C38.988 246.564 38.932 246.84 38.932 247.144H37.768C37.776 246.568 37.9 246.08 38.14 245.68C38.38 245.28 38.708 244.976 39.124 244.768C39.54 244.56 40.008 244.456 40.528 244.456C41.064 244.456 41.528 244.556 41.92 244.756C42.312 244.948 42.62 245.232 42.844 245.608C43.068 245.984 43.18 246.436 43.18 246.964C43.18 247.348 43.1 247.732 42.94 248.116C42.788 248.492 42.58 248.86 42.316 249.22C42.052 249.58 41.756 249.928 41.428 250.264C41.108 250.592 40.776 250.904 40.432 251.2C40.088 251.496 39.76 251.764 39.448 252.004H43.432V253H37.72ZM47.7306 253.144C47.0026 253.144 46.3746 252.964 45.8466 252.604C45.3266 252.236 44.9266 251.728 44.6466 251.08C44.3666 250.424 44.2266 249.664 44.2266 248.8C44.2266 247.936 44.3666 247.18 44.6466 246.532C44.9266 245.876 45.3266 245.368 45.8466 245.008C46.3746 244.64 47.0026 244.456 47.7306 244.456C48.4666 244.456 49.0906 244.64 49.6026 245.008C50.1226 245.368 50.5226 245.876 50.8026 246.532C51.0906 247.18 51.2346 247.936 51.2346 248.8C51.2346 249.664 51.0906 250.424 50.8026 251.08C50.5226 251.728 50.1226 252.236 49.6026 252.604C49.0906 252.964 48.4666 253.144 47.7306 253.144ZM47.7306 252.076C48.1706 252.076 48.5586 251.944 48.8946 251.68C49.2386 251.416 49.5066 251.04 49.6986 250.552C49.8986 250.064 49.9986 249.48 49.9986 248.8C49.9986 248.112 49.8986 247.528 49.6986 247.048C49.5066 246.56 49.2386 246.188 48.8946 245.932C48.5586 245.668 48.1706 245.536 47.7306 245.536C47.2906 245.536 46.8986 245.668 46.5546 245.932C46.2106 246.188 45.9386 246.56 45.7386 247.048C45.5466 247.528 45.4506 248.112 45.4506 248.8C45.4506 249.48 45.5466 250.064 45.7386 250.552C45.9386 251.04 46.2106 251.416 46.5546 251.68C46.8986 251.944 47.2906 252.076 47.7306 252.076ZM55.6352 253.144C54.9072 253.144 54.2792 252.964 53.7512 252.604C53.2312 252.236 52.8312 251.728 52.5512 251.08C52.2712 250.424 52.1312 249.664 52.1312 248.8C52.1312 247.936 52.2712 247.18 52.5512 246.532C52.8312 245.876 53.2312 245.368 53.7512 245.008C54.2792 244.64 54.9072 244.456 55.6352 244.456C56.3712 244.456 56.9952 244.64 57.5072 245.008C58.0272 245.368 58.4272 245.876 58.7072 246.532C58.9952 247.18 59.1392 247.936 59.1392 248.8C59.1392 249.664 58.9952 250.424 58.7072 251.08C58.4272 251.728 58.0272 252.236 57.5072 252.604C56.9952 252.964 56.3712 253.144 55.6352 253.144ZM55.6352 252.076C56.0752 252.076 56.4632 251.944 56.7992 251.68C57.1432 251.416 57.4112 251.04 57.6032 250.552C57.8032 250.064 57.9032 249.48 57.9032 248.8C57.9032 248.112 57.8032 247.528 57.6032 247.048C57.4112 246.56 57.1432 246.188 56.7992 245.932C56.4632 245.668 56.0752 245.536 55.6352 245.536C55.1952 245.536 54.8032 245.668 54.4592 245.932C54.1152 246.188 53.8432 246.56 53.6432 247.048C53.4512 247.528 53.3552 248.112 53.3552 248.8C53.3552 249.48 53.4512 250.064 53.6432 250.552C53.8432 251.04 54.1152 251.416 54.4592 251.68C54.8032 251.944 55.1952 252.076 55.6352 252.076ZM60.3477 253V244.6H61.5477V248.248L64.9077 244.6H66.4077L63.2997 247.936L66.4677 253H65.0037L62.4357 248.872L61.5477 249.82V253H60.3477Z" fill="#A4A7AE"/>
<path d="M38.98 300V292.956L37.408 293.412V292.476L39.424 291.6H40.204V300H38.98ZM44.9298 300.144C44.2018 300.144 43.5738 299.964 43.0458 299.604C42.5258 299.236 42.1258 298.728 41.8458 298.08C41.5658 297.424 41.4258 296.664 41.4258 295.8C41.4258 294.936 41.5658 294.18 41.8458 293.532C42.1258 292.876 42.5258 292.368 43.0458 292.008C43.5738 291.64 44.2018 291.456 44.9298 291.456C45.6658 291.456 46.2898 291.64 46.8018 292.008C47.3218 292.368 47.7218 292.876 48.0018 293.532C48.2898 294.18 48.4338 294.936 48.4338 295.8C48.4338 296.664 48.2898 297.424 48.0018 298.08C47.7218 298.728 47.3218 299.236 46.8018 299.604C46.2898 299.964 45.6658 300.144 44.9298 300.144ZM44.9298 299.076C45.3698 299.076 45.7578 298.944 46.0938 298.68C46.4378 298.416 46.7058 298.04 46.8978 297.552C47.0978 297.064 47.1978 296.48 47.1978 295.8C47.1978 295.112 47.0978 294.528 46.8978 294.048C46.7058 293.56 46.4378 293.188 46.0938 292.932C45.7578 292.668 45.3698 292.536 44.9298 292.536C44.4898 292.536 44.0978 292.668 43.7538 292.932C43.4098 293.188 43.1378 293.56 42.9378 294.048C42.7458 294.528 42.6498 295.112 42.6498 295.8C42.6498 296.48 42.7458 297.064 42.9378 297.552C43.1378 298.04 43.4098 298.416 43.7538 298.68C44.0978 298.944 44.4898 299.076 44.9298 299.076ZM52.8344 300.144C52.1064 300.144 51.4784 299.964 50.9504 299.604C50.4304 299.236 50.0304 298.728 49.7504 298.08C49.4704 297.424 49.3304 296.664 49.3304 295.8C49.3304 294.936 49.4704 294.18 49.7504 293.532C50.0304 292.876 50.4304 292.368 50.9504 292.008C51.4784 291.64 52.1064 291.456 52.8344 291.456C53.5704 291.456 54.1944 291.64 54.7064 292.008C55.2264 292.368 55.6264 292.876 55.9064 293.532C56.1944 294.18 56.3384 294.936 56.3384 295.8C56.3384 296.664 56.1944 297.424 55.9064 298.08C55.6264 298.728 55.2264 299.236 54.7064 299.604C54.1944 299.964 53.5704 300.144 52.8344 300.144ZM52.8344 299.076C53.2744 299.076 53.6624 298.944 53.9984 298.68C54.3424 298.416 54.6104 298.04 54.8024 297.552C55.0024 297.064 55.1024 296.48 55.1024 295.8C55.1024 295.112 55.0024 294.528 54.8024 294.048C54.6104 293.56 54.3424 293.188 53.9984 292.932C53.6624 292.668 53.2744 292.536 52.8344 292.536C52.3944 292.536 52.0024 292.668 51.6584 292.932C51.3144 293.188 51.0424 293.56 50.8424 294.048C50.6504 294.528 50.5544 295.112 50.5544 295.8C50.5544 296.48 50.6504 297.064 50.8424 297.552C51.0424 298.04 51.3144 298.416 51.6584 298.68C52.0024 298.944 52.3944 299.076 52.8344 299.076ZM57.5469 300V291.6H58.7469V295.248L62.1069 291.6H63.6069L60.4989 294.936L63.6669 300H62.2029L59.6349 295.872L58.7469 296.82V300H57.5469Z" fill="#A4A7AE"/>
<path d="M260.296 53L256.6 46.472H255.016V53H251.656V36.248H257.944C259.24 36.248 260.344 36.48 261.256 36.944C262.168 37.392 262.848 38.008 263.296 38.792C263.76 39.56 263.992 40.424 263.992 41.384C263.992 42.488 263.672 43.488 263.032 44.384C262.392 45.264 261.44 45.872 260.176 46.208L264.184 53H260.296ZM255.016 43.952H257.824C258.736 43.952 259.416 43.736 259.864 43.304C260.312 42.856 260.536 42.24 260.536 41.456C260.536 40.688 260.312 40.096 259.864 39.68C259.416 39.248 258.736 39.032 257.824 39.032H255.016V43.952ZM278.911 46.064C278.911 46.544 278.879 46.976 278.815 47.36H269.095C269.175 48.32 269.511 49.072 270.103 49.616C270.695 50.16 271.423 50.432 272.287 50.432C273.535 50.432 274.423 49.896 274.951 48.824H278.575C278.191 50.104 277.455 51.16 276.367 51.992C275.279 52.808 273.943 53.216 272.359 53.216C271.079 53.216 269.927 52.936 268.903 52.376C267.895 51.8 267.103 50.992 266.527 49.952C265.967 48.912 265.687 47.712 265.687 46.352C265.687 44.976 265.967 43.768 266.527 42.728C267.087 41.688 267.871 40.888 268.879 40.328C269.887 39.768 271.047 39.488 272.359 39.488C273.623 39.488 274.751 39.76 275.743 40.304C276.751 40.848 277.527 41.624 278.071 42.632C278.631 43.624 278.911 44.768 278.911 46.064ZM275.431 45.104C275.415 44.24 275.103 43.552 274.495 43.04C273.887 42.512 273.143 42.248 272.263 42.248C271.431 42.248 270.727 42.504 270.151 43.016C269.591 43.512 269.247 44.208 269.119 45.104H275.431ZM280.02 46.304C280.02 44.96 280.284 43.768 280.812 42.728C281.356 41.688 282.084 40.888 282.996 40.328C283.924 39.768 284.956 39.488 286.092 39.488C287.084 39.488 287.948 39.688 288.684 40.088C289.436 40.488 290.036 40.992 290.484 41.6V39.704H293.868V53H290.484V51.056C290.052 51.68 289.452 52.2 288.684 52.616C287.932 53.016 287.06 53.216 286.068 53.216C284.948 53.216 283.924 52.928 282.996 52.352C282.084 51.776 281.356 50.968 280.812 49.928C280.284 48.872 280.02 47.664 280.02 46.304ZM290.484 46.352C290.484 45.536 290.324 44.84 290.004 44.264C289.684 43.672 289.252 43.224 288.708 42.92C288.164 42.6 287.58 42.44 286.956 42.44C286.332 42.44 285.756 42.592 285.228 42.896C284.7 43.2 284.268 43.648 283.932 44.24C283.612 44.816 283.452 45.504 283.452 46.304C283.452 47.104 283.612 47.808 283.932 48.416C284.268 49.008 284.7 49.464 285.228 49.784C285.772 50.104 286.348 50.264 286.956 50.264C287.58 50.264 288.164 50.112 288.708 49.808C289.252 49.488 289.684 49.04 290.004 48.464C290.324 47.872 290.484 47.168 290.484 46.352ZM300.029 35.24V53H296.669V35.24H300.029ZM319.508 36.248V38.96H315.044V53H311.684V38.96H307.22V36.248H319.508ZM323.183 38.12C322.591 38.12 322.095 37.936 321.695 37.568C321.311 37.184 321.119 36.712 321.119 36.152C321.119 35.592 321.311 35.128 321.695 34.76C322.095 34.376 322.591 34.184 323.183 34.184C323.775 34.184 324.263 34.376 324.647 34.76C325.047 35.128 325.247 35.592 325.247 36.152C325.247 36.712 325.047 37.184 324.647 37.568C324.263 37.936 323.775 38.12 323.183 38.12ZM324.839 39.704V53H321.479V39.704H324.839ZM344.191 39.512C345.823 39.512 347.135 40.016 348.127 41.024C349.135 42.016 349.639 43.408 349.639 45.2V53H346.279V45.656C346.279 44.616 346.015 43.824 345.487 43.28C344.959 42.72 344.239 42.44 343.327 42.44C342.415 42.44 341.687 42.72 341.143 43.28C340.615 43.824 340.351 44.616 340.351 45.656V53H336.991V45.656C336.991 44.616 336.727 43.824 336.199 43.28C335.671 42.72 334.951 42.44 334.039 42.44C333.111 42.44 332.375 42.72 331.831 43.28C331.303 43.824 331.039 44.616 331.039 45.656V53H327.679V39.704H331.039V41.312C331.471 40.752 332.023 40.312 332.695 39.992C333.383 39.672 334.135 39.512 334.951 39.512C335.991 39.512 336.919 39.736 337.735 40.184C338.551 40.616 339.183 41.24 339.631 42.056C340.063 41.288 340.687 40.672 341.503 40.208C342.335 39.744 343.231 39.512 344.191 39.512ZM364.707 46.064C364.707 46.544 364.675 46.976 364.611 47.36H354.891C354.971 48.32 355.307 49.072 355.899 49.616C356.491 50.16 357.219 50.432 358.083 50.432C359.331 50.432 360.219 49.896 360.747 48.824H364.371C363.987 50.104 363.251 51.16 362.163 51.992C361.075 52.808 359.739 53.216 358.155 53.216C356.875 53.216 355.723 52.936 354.699 52.376C353.691 51.8 352.899 50.992 352.323 49.952C351.763 48.912 351.483 47.712 351.483 46.352C351.483 44.976 351.763 43.768 352.323 42.728C352.883 41.688 353.667 40.888 354.675 40.328C355.683 39.768 356.843 39.488 358.155 39.488C359.419 39.488 360.547 39.76 361.539 40.304C362.547 40.848 363.323 41.624 363.867 42.632C364.427 43.624 364.707 44.768 364.707 46.064ZM361.227 45.104C361.211 44.24 360.899 43.552 360.291 43.04C359.683 42.512 358.939 42.248 358.059 42.248C357.227 42.248 356.523 42.504 355.947 43.016C355.387 43.512 355.043 44.208 354.915 45.104H361.227ZM386.966 36.248L380.822 53H376.742L370.598 36.248H374.198L378.806 49.568L383.39 36.248H386.966ZM390.205 38.12C389.613 38.12 389.117 37.936 388.717 37.568C388.333 37.184 388.141 36.712 388.141 36.152C388.141 35.592 388.333 35.128 388.717 34.76C389.117 34.376 389.613 34.184 390.205 34.184C390.797 34.184 391.285 34.376 391.669 34.76C392.069 35.128 392.269 35.592 392.269 36.152C392.269 36.712 392.069 37.184 391.669 37.568C391.285 37.936 390.797 38.12 390.205 38.12ZM391.861 39.704V53H388.501V39.704H391.861ZM399.789 53.216C398.701 53.216 397.725 53.024 396.861 52.64C395.997 52.24 395.309 51.704 394.797 51.032C394.301 50.36 394.029 49.616 393.981 48.8H397.365C397.429 49.312 397.677 49.736 398.109 50.072C398.557 50.408 399.109 50.576 399.765 50.576C400.405 50.576 400.901 50.448 401.253 50.192C401.621 49.936 401.805 49.608 401.805 49.208C401.805 48.776 401.581 48.456 401.133 48.248C400.701 48.024 400.005 47.784 399.045 47.528C398.053 47.288 397.237 47.04 396.597 46.784C395.973 46.528 395.429 46.136 394.965 45.608C394.517 45.08 394.293 44.368 394.293 43.472C394.293 42.736 394.501 42.064 394.917 41.456C395.349 40.848 395.957 40.368 396.741 40.016C397.541 39.664 398.477 39.488 399.549 39.488C401.133 39.488 402.397 39.888 403.341 40.688C404.285 41.472 404.805 42.536 404.901 43.88H401.685C401.637 43.352 401.413 42.936 401.013 42.632C400.629 42.312 400.109 42.152 399.453 42.152C398.845 42.152 398.373 42.264 398.037 42.488C397.717 42.712 397.557 43.024 397.557 43.424C397.557 43.872 397.781 44.216 398.229 44.456C398.677 44.68 399.373 44.912 400.317 45.152C401.277 45.392 402.069 45.64 402.693 45.896C403.317 46.152 403.853 46.552 404.301 47.096C404.765 47.624 405.005 48.328 405.021 49.208C405.021 49.976 404.805 50.664 404.373 51.272C403.957 51.88 403.349 52.36 402.549 52.712C401.765 53.048 400.845 53.216 399.789 53.216ZM409.003 38.12C408.411 38.12 407.915 37.936 407.515 37.568C407.131 37.184 406.939 36.712 406.939 36.152C406.939 35.592 407.131 35.128 407.515 34.76C407.915 34.376 408.411 34.184 409.003 34.184C409.595 34.184 410.083 34.376 410.467 34.76C410.867 35.128 411.067 35.592 411.067 36.152C411.067 36.712 410.867 37.184 410.467 37.568C410.083 37.936 409.595 38.12 409.003 38.12ZM410.659 39.704V53H407.299V39.704H410.659ZM416.858 41.648C417.29 41.008 417.882 40.488 418.634 40.088C419.402 39.688 420.274 39.488 421.25 39.488C422.386 39.488 423.41 39.768 424.322 40.328C425.25 40.888 425.978 41.688 426.506 42.728C427.05 43.752 427.322 44.944 427.322 46.304C427.322 47.664 427.05 48.872 426.506 49.928C425.978 50.968 425.25 51.776 424.322 52.352C423.41 52.928 422.386 53.216 421.25 53.216C420.258 53.216 419.386 53.024 418.634 52.64C417.898 52.24 417.306 51.728 416.858 51.104V53H413.498V35.24H416.858V41.648ZM423.89 46.304C423.89 45.504 423.722 44.816 423.386 44.24C423.066 43.648 422.634 43.2 422.09 42.896C421.562 42.592 420.986 42.44 420.362 42.44C419.754 42.44 419.178 42.6 418.634 42.92C418.106 43.224 417.674 43.672 417.338 44.264C417.018 44.856 416.858 45.552 416.858 46.352C416.858 47.152 417.018 47.848 417.338 48.44C417.674 49.032 418.106 49.488 418.634 49.808C419.178 50.112 419.754 50.264 420.362 50.264C420.986 50.264 421.562 50.104 422.09 49.784C422.634 49.464 423.066 49.008 423.386 48.416C423.722 47.824 423.89 47.12 423.89 46.304ZM430.988 38.12C430.396 38.12 429.9 37.936 429.5 37.568C429.116 37.184 428.924 36.712 428.924 36.152C428.924 35.592 429.116 35.128 429.5 34.76C429.9 34.376 430.396 34.184 430.988 34.184C431.58 34.184 432.068 34.376 432.452 34.76C432.852 35.128 433.052 35.592 433.052 36.152C433.052 36.712 432.852 37.184 432.452 37.568C432.068 37.936 431.58 38.12 430.988 38.12ZM432.644 39.704V53H429.284V39.704H432.644ZM438.844 35.24V53H435.484V35.24H438.844ZM443.387 38.12C442.795 38.12 442.299 37.936 441.899 37.568C441.515 37.184 441.323 36.712 441.323 36.152C441.323 35.592 441.515 35.128 441.899 34.76C442.299 34.376 442.795 34.184 443.387 34.184C443.979 34.184 444.467 34.376 444.851 34.76C445.251 35.128 445.451 35.592 445.451 36.152C445.451 36.712 445.251 37.184 444.851 37.568C444.467 37.936 443.979 38.12 443.387 38.12ZM445.043 39.704V53H441.683V39.704H445.043ZM451.795 42.464V48.896C451.795 49.344 451.899 49.672 452.107 49.88C452.331 50.072 452.699 50.168 453.211 50.168H454.771V53H452.659C449.827 53 448.411 51.624 448.411 48.872V42.464H446.827V39.704H448.411V36.416H451.795V39.704H454.771V42.464H451.795ZM469.428 39.704L461.196 59.288H457.62L460.5 52.664L455.172 39.704H458.94L462.372 48.992L465.852 39.704H469.428Z" fill="#414651"/>
<defs>
<linearGradient id="paint0_linear_11574_15933" x1="380.5" y1="132.5" x2="380.5" y2="297.5" gradientUnits="userSpaceOnUse">
<stop stop-color="#B1C357"/>
<stop offset="1" stop-color="#B1C357" stop-opacity="0"/>
</linearGradient>
<clipPath id="clip0_11574_15933">
<rect width="615" height="191" fill="white" transform="translate(73 108)"/>
</clipPath>
<clipPath id="clip1_11574_15933">
<rect width="24" height="24" fill="white" transform="translate(660 33)"/>
</clipPath>
</defs>
</svg>
